G04 #@! TF.GenerationSoftware,KiCad,Pcbnew,(5.1.8)-1*
G04 #@! TF.CreationDate,2022-11-12T23:31:27+01:00*
G04 #@! TF.ProjectId,RetroPanel FP2,52657472-6f50-4616-9e65-6c204650322e,rev?*
G04 #@! TF.SameCoordinates,Original*
G04 #@! TF.FileFunction,Legend,Top*
G04 #@! TF.FilePolarity,Positive*
%FSLAX46Y46*%
G04 Gerber Fmt 4.6, Leading zero omitted, Abs format (unit mm)*
G04 Created by KiCad (PCBNEW (5.1.8)-1) date 2022-11-12 23:31:27*
%MOMM*%
%LPD*%
G01*
G04 APERTURE LIST*
%ADD10C,0.010000*%
G04 APERTURE END LIST*
D10*
G36*
X164784835Y-103328443D02*
G01*
X166412062Y-103328443D01*
X166412062Y-103735250D01*
X163971221Y-103735250D01*
X163971221Y-100887602D01*
X164784835Y-100887602D01*
X164784835Y-103328443D01*
G37*
X164784835Y-103328443D02*
X166412062Y-103328443D01*
X166412062Y-103735250D01*
X163971221Y-103735250D01*
X163971221Y-100887602D01*
X164784835Y-100887602D01*
X164784835Y-103328443D01*
G36*
X163564414Y-101294409D02*
G01*
X161937187Y-101294409D01*
X161937187Y-102108022D01*
X162750801Y-102108022D01*
X162750801Y-102514829D01*
X161937187Y-102514829D01*
X161937187Y-103328443D01*
X163564414Y-103328443D01*
X163564414Y-103735250D01*
X161123573Y-103735250D01*
X161123573Y-100887602D01*
X163564414Y-100887602D01*
X163564414Y-101294409D01*
G37*
X163564414Y-101294409D02*
X161937187Y-101294409D01*
X161937187Y-102108022D01*
X162750801Y-102108022D01*
X162750801Y-102514829D01*
X161937187Y-102514829D01*
X161937187Y-103328443D01*
X163564414Y-103328443D01*
X163564414Y-103735250D01*
X161123573Y-103735250D01*
X161123573Y-100887602D01*
X163564414Y-100887602D01*
X163564414Y-101294409D01*
G36*
X159089539Y-101294409D02*
G01*
X159496346Y-101294409D01*
X159496346Y-101701216D01*
X159903153Y-101701216D01*
X159903153Y-100887602D01*
X160716767Y-100887602D01*
X160716767Y-103735250D01*
X159903153Y-103735250D01*
X159903153Y-102921636D01*
X159496346Y-102921636D01*
X159496346Y-102514829D01*
X159089539Y-102514829D01*
X159089539Y-103735250D01*
X158275926Y-103735250D01*
X158275926Y-100887602D01*
X159089539Y-100887602D01*
X159089539Y-101294409D01*
G37*
X159089539Y-101294409D02*
X159496346Y-101294409D01*
X159496346Y-101701216D01*
X159903153Y-101701216D01*
X159903153Y-100887602D01*
X160716767Y-100887602D01*
X160716767Y-103735250D01*
X159903153Y-103735250D01*
X159903153Y-102921636D01*
X159496346Y-102921636D01*
X159496346Y-102514829D01*
X159089539Y-102514829D01*
X159089539Y-103735250D01*
X158275926Y-103735250D01*
X158275926Y-100887602D01*
X159089539Y-100887602D01*
X159089539Y-101294409D01*
G36*
X157055505Y-101294409D02*
G01*
X157462312Y-101294409D01*
X157462312Y-101701216D01*
X157869119Y-101701216D01*
X157869119Y-103735250D01*
X157055505Y-103735250D01*
X157055505Y-102514829D01*
X156241892Y-102514829D01*
X156241892Y-103735250D01*
X155428278Y-103735250D01*
X155428278Y-101701216D01*
X155835085Y-101701216D01*
X156241892Y-101701216D01*
X156241892Y-102108022D01*
X157055505Y-102108022D01*
X157055505Y-101701216D01*
X156241892Y-101701216D01*
X155835085Y-101701216D01*
X155835085Y-101294409D01*
X156241892Y-101294409D01*
X156241892Y-100887602D01*
X157055505Y-100887602D01*
X157055505Y-101294409D01*
G37*
X157055505Y-101294409D02*
X157462312Y-101294409D01*
X157462312Y-101701216D01*
X157869119Y-101701216D01*
X157869119Y-103735250D01*
X157055505Y-103735250D01*
X157055505Y-102514829D01*
X156241892Y-102514829D01*
X156241892Y-103735250D01*
X155428278Y-103735250D01*
X155428278Y-101701216D01*
X155835085Y-101701216D01*
X156241892Y-101701216D01*
X156241892Y-102108022D01*
X157055505Y-102108022D01*
X157055505Y-101701216D01*
X156241892Y-101701216D01*
X155835085Y-101701216D01*
X155835085Y-101294409D01*
X156241892Y-101294409D01*
X156241892Y-100887602D01*
X157055505Y-100887602D01*
X157055505Y-101294409D01*
G36*
X154614664Y-101294409D02*
G01*
X155021471Y-101294409D01*
X155021471Y-102108022D01*
X154614664Y-102108022D01*
X154614664Y-102514829D01*
X153394244Y-102514829D01*
X153394244Y-103735250D01*
X152580630Y-103735250D01*
X152580630Y-101294409D01*
X153394244Y-101294409D01*
X153394244Y-102108022D01*
X154207858Y-102108022D01*
X154207858Y-101294409D01*
X153394244Y-101294409D01*
X152580630Y-101294409D01*
X152580630Y-100887602D01*
X154614664Y-100887602D01*
X154614664Y-101294409D01*
G37*
X154614664Y-101294409D02*
X155021471Y-101294409D01*
X155021471Y-102108022D01*
X154614664Y-102108022D01*
X154614664Y-102514829D01*
X153394244Y-102514829D01*
X153394244Y-103735250D01*
X152580630Y-103735250D01*
X152580630Y-101294409D01*
X153394244Y-101294409D01*
X153394244Y-102108022D01*
X154207858Y-102108022D01*
X154207858Y-101294409D01*
X153394244Y-101294409D01*
X152580630Y-101294409D01*
X152580630Y-100887602D01*
X154614664Y-100887602D01*
X154614664Y-101294409D01*
G36*
X148512562Y-101294409D02*
G01*
X148919369Y-101294409D01*
X148919369Y-103328443D01*
X148512562Y-103328443D01*
X148512562Y-103735250D01*
X146885335Y-103735250D01*
X146885335Y-103328443D01*
X146478528Y-103328443D01*
X146478528Y-101294409D01*
X146885335Y-101294409D01*
X147292142Y-101294409D01*
X147292142Y-103328443D01*
X148105756Y-103328443D01*
X148105756Y-101294409D01*
X147292142Y-101294409D01*
X146885335Y-101294409D01*
X146885335Y-100887602D01*
X148512562Y-100887602D01*
X148512562Y-101294409D01*
G37*
X148512562Y-101294409D02*
X148919369Y-101294409D01*
X148919369Y-103328443D01*
X148512562Y-103328443D01*
X148512562Y-103735250D01*
X146885335Y-103735250D01*
X146885335Y-103328443D01*
X146478528Y-103328443D01*
X146478528Y-101294409D01*
X146885335Y-101294409D01*
X147292142Y-101294409D01*
X147292142Y-103328443D01*
X148105756Y-103328443D01*
X148105756Y-101294409D01*
X147292142Y-101294409D01*
X146885335Y-101294409D01*
X146885335Y-100887602D01*
X148512562Y-100887602D01*
X148512562Y-101294409D01*
G36*
X145664915Y-101294409D02*
G01*
X146071721Y-101294409D01*
X146071721Y-102108022D01*
X145664915Y-102108022D01*
X145664915Y-102514829D01*
X145258108Y-102514829D01*
X145258108Y-102921636D01*
X145664915Y-102921636D01*
X145664915Y-103328443D01*
X146071721Y-103328443D01*
X146071721Y-103735250D01*
X145258108Y-103735250D01*
X145258108Y-103328443D01*
X144851301Y-103328443D01*
X144851301Y-102921636D01*
X144444494Y-102921636D01*
X144444494Y-103735250D01*
X143630881Y-103735250D01*
X143630881Y-101294409D01*
X144444494Y-101294409D01*
X144444494Y-102108022D01*
X145258108Y-102108022D01*
X145258108Y-101294409D01*
X144444494Y-101294409D01*
X143630881Y-101294409D01*
X143630881Y-100887602D01*
X145664915Y-100887602D01*
X145664915Y-101294409D01*
G37*
X145664915Y-101294409D02*
X146071721Y-101294409D01*
X146071721Y-102108022D01*
X145664915Y-102108022D01*
X145664915Y-102514829D01*
X145258108Y-102514829D01*
X145258108Y-102921636D01*
X145664915Y-102921636D01*
X145664915Y-103328443D01*
X146071721Y-103328443D01*
X146071721Y-103735250D01*
X145258108Y-103735250D01*
X145258108Y-103328443D01*
X144851301Y-103328443D01*
X144851301Y-102921636D01*
X144444494Y-102921636D01*
X144444494Y-103735250D01*
X143630881Y-103735250D01*
X143630881Y-101294409D01*
X144444494Y-101294409D01*
X144444494Y-102108022D01*
X145258108Y-102108022D01*
X145258108Y-101294409D01*
X144444494Y-101294409D01*
X143630881Y-101294409D01*
X143630881Y-100887602D01*
X145664915Y-100887602D01*
X145664915Y-101294409D01*
G36*
X143224074Y-101294409D02*
G01*
X142410460Y-101294409D01*
X142410460Y-103735250D01*
X141596847Y-103735250D01*
X141596847Y-101294409D01*
X140783233Y-101294409D01*
X140783233Y-100887602D01*
X143224074Y-100887602D01*
X143224074Y-101294409D01*
G37*
X143224074Y-101294409D02*
X142410460Y-101294409D01*
X142410460Y-103735250D01*
X141596847Y-103735250D01*
X141596847Y-101294409D01*
X140783233Y-101294409D01*
X140783233Y-100887602D01*
X143224074Y-100887602D01*
X143224074Y-101294409D01*
G36*
X140376426Y-101294409D02*
G01*
X138749199Y-101294409D01*
X138749199Y-102108022D01*
X139562813Y-102108022D01*
X139562813Y-102514829D01*
X138749199Y-102514829D01*
X138749199Y-103328443D01*
X140376426Y-103328443D01*
X140376426Y-103735250D01*
X137935585Y-103735250D01*
X137935585Y-100887602D01*
X140376426Y-100887602D01*
X140376426Y-101294409D01*
G37*
X140376426Y-101294409D02*
X138749199Y-101294409D01*
X138749199Y-102108022D01*
X139562813Y-102108022D01*
X139562813Y-102514829D01*
X138749199Y-102514829D01*
X138749199Y-103328443D01*
X140376426Y-103328443D01*
X140376426Y-103735250D01*
X137935585Y-103735250D01*
X137935585Y-100887602D01*
X140376426Y-100887602D01*
X140376426Y-101294409D01*
G36*
X137121972Y-101294409D02*
G01*
X137528779Y-101294409D01*
X137528779Y-102108022D01*
X137121972Y-102108022D01*
X137121972Y-102514829D01*
X136715165Y-102514829D01*
X136715165Y-102921636D01*
X137121972Y-102921636D01*
X137121972Y-103328443D01*
X137528779Y-103328443D01*
X137528779Y-103735250D01*
X136715165Y-103735250D01*
X136715165Y-103328443D01*
X136308358Y-103328443D01*
X136308358Y-102921636D01*
X135901551Y-102921636D01*
X135901551Y-103735250D01*
X135087938Y-103735250D01*
X135087938Y-101294409D01*
X135901551Y-101294409D01*
X135901551Y-102108022D01*
X136715165Y-102108022D01*
X136715165Y-101294409D01*
X135901551Y-101294409D01*
X135087938Y-101294409D01*
X135087938Y-100887602D01*
X137121972Y-100887602D01*
X137121972Y-101294409D01*
G37*
X137121972Y-101294409D02*
X137528779Y-101294409D01*
X137528779Y-102108022D01*
X137121972Y-102108022D01*
X137121972Y-102514829D01*
X136715165Y-102514829D01*
X136715165Y-102921636D01*
X137121972Y-102921636D01*
X137121972Y-103328443D01*
X137528779Y-103328443D01*
X137528779Y-103735250D01*
X136715165Y-103735250D01*
X136715165Y-103328443D01*
X136308358Y-103328443D01*
X136308358Y-102921636D01*
X135901551Y-102921636D01*
X135901551Y-103735250D01*
X135087938Y-103735250D01*
X135087938Y-101294409D01*
X135901551Y-101294409D01*
X135901551Y-102108022D01*
X136715165Y-102108022D01*
X136715165Y-101294409D01*
X135901551Y-101294409D01*
X135087938Y-101294409D01*
X135087938Y-100887602D01*
X137121972Y-100887602D01*
X137121972Y-101294409D01*
G36*
X120740925Y-81234110D02*
G01*
X120771436Y-81248127D01*
X120795597Y-81273116D01*
X120803630Y-81286576D01*
X120808495Y-81296335D01*
X120812097Y-81305534D01*
X120814560Y-81316092D01*
X120816006Y-81329927D01*
X120816559Y-81348958D01*
X120816343Y-81375103D01*
X120815480Y-81410281D01*
X120814240Y-81451650D01*
X120812735Y-81497450D01*
X120811265Y-81532451D01*
X120809618Y-81558551D01*
X120807584Y-81577647D01*
X120804951Y-81591639D01*
X120801507Y-81602425D01*
X120797042Y-81611902D01*
X120796242Y-81613383D01*
X120775164Y-81639482D01*
X120746645Y-81657569D01*
X120713940Y-81666477D01*
X120680307Y-81665038D01*
X120665003Y-81660416D01*
X120648494Y-81651248D01*
X120634237Y-81640181D01*
X120623464Y-81629339D01*
X120615349Y-81618349D01*
X120609522Y-81605278D01*
X120605618Y-81588191D01*
X120603267Y-81565155D01*
X120602103Y-81534235D01*
X120601758Y-81493497D01*
X120601776Y-81469427D01*
X120602140Y-81429182D01*
X120602985Y-81391452D01*
X120604214Y-81358798D01*
X120605733Y-81333784D01*
X120607399Y-81319200D01*
X120619881Y-81283485D01*
X120641340Y-81256302D01*
X120670793Y-81238541D01*
X120704424Y-81231265D01*
X120740925Y-81234110D01*
G37*
X120740925Y-81234110D02*
X120771436Y-81248127D01*
X120795597Y-81273116D01*
X120803630Y-81286576D01*
X120808495Y-81296335D01*
X120812097Y-81305534D01*
X120814560Y-81316092D01*
X120816006Y-81329927D01*
X120816559Y-81348958D01*
X120816343Y-81375103D01*
X120815480Y-81410281D01*
X120814240Y-81451650D01*
X120812735Y-81497450D01*
X120811265Y-81532451D01*
X120809618Y-81558551D01*
X120807584Y-81577647D01*
X120804951Y-81591639D01*
X120801507Y-81602425D01*
X120797042Y-81611902D01*
X120796242Y-81613383D01*
X120775164Y-81639482D01*
X120746645Y-81657569D01*
X120713940Y-81666477D01*
X120680307Y-81665038D01*
X120665003Y-81660416D01*
X120648494Y-81651248D01*
X120634237Y-81640181D01*
X120623464Y-81629339D01*
X120615349Y-81618349D01*
X120609522Y-81605278D01*
X120605618Y-81588191D01*
X120603267Y-81565155D01*
X120602103Y-81534235D01*
X120601758Y-81493497D01*
X120601776Y-81469427D01*
X120602140Y-81429182D01*
X120602985Y-81391452D01*
X120604214Y-81358798D01*
X120605733Y-81333784D01*
X120607399Y-81319200D01*
X120619881Y-81283485D01*
X120641340Y-81256302D01*
X120670793Y-81238541D01*
X120704424Y-81231265D01*
X120740925Y-81234110D01*
G36*
X119602372Y-81551162D02*
G01*
X119614709Y-81559024D01*
X119635700Y-81575829D01*
X119661342Y-81598112D01*
X119689769Y-81624055D01*
X119719111Y-81651842D01*
X119747502Y-81679654D01*
X119773074Y-81705675D01*
X119793958Y-81728086D01*
X119808287Y-81745069D01*
X119813016Y-81751997D01*
X119823919Y-81783818D01*
X119823748Y-81816942D01*
X119813403Y-81848442D01*
X119793785Y-81875391D01*
X119769637Y-81892981D01*
X119744770Y-81900462D01*
X119714808Y-81901976D01*
X119685814Y-81897621D01*
X119669799Y-81891387D01*
X119659091Y-81883682D01*
X119641017Y-81868652D01*
X119617311Y-81847828D01*
X119589710Y-81822740D01*
X119559949Y-81794918D01*
X119554154Y-81789412D01*
X119518153Y-81754650D01*
X119490720Y-81726733D01*
X119470876Y-81704133D01*
X119457641Y-81685319D01*
X119450035Y-81668765D01*
X119447078Y-81652941D01*
X119447791Y-81636318D01*
X119449440Y-81626029D01*
X119461194Y-81593924D01*
X119481688Y-81568355D01*
X119508486Y-81550308D01*
X119539156Y-81540768D01*
X119571262Y-81540724D01*
X119602372Y-81551162D01*
G37*
X119602372Y-81551162D02*
X119614709Y-81559024D01*
X119635700Y-81575829D01*
X119661342Y-81598112D01*
X119689769Y-81624055D01*
X119719111Y-81651842D01*
X119747502Y-81679654D01*
X119773074Y-81705675D01*
X119793958Y-81728086D01*
X119808287Y-81745069D01*
X119813016Y-81751997D01*
X119823919Y-81783818D01*
X119823748Y-81816942D01*
X119813403Y-81848442D01*
X119793785Y-81875391D01*
X119769637Y-81892981D01*
X119744770Y-81900462D01*
X119714808Y-81901976D01*
X119685814Y-81897621D01*
X119669799Y-81891387D01*
X119659091Y-81883682D01*
X119641017Y-81868652D01*
X119617311Y-81847828D01*
X119589710Y-81822740D01*
X119559949Y-81794918D01*
X119554154Y-81789412D01*
X119518153Y-81754650D01*
X119490720Y-81726733D01*
X119470876Y-81704133D01*
X119457641Y-81685319D01*
X119450035Y-81668765D01*
X119447078Y-81652941D01*
X119447791Y-81636318D01*
X119449440Y-81626029D01*
X119461194Y-81593924D01*
X119481688Y-81568355D01*
X119508486Y-81550308D01*
X119539156Y-81540768D01*
X119571262Y-81540724D01*
X119602372Y-81551162D01*
G36*
X121706747Y-81597149D02*
G01*
X121736366Y-81613218D01*
X121759289Y-81637615D01*
X121773825Y-81668373D01*
X121778284Y-81703525D01*
X121777495Y-81713898D01*
X121773105Y-81725593D01*
X121762482Y-81745547D01*
X121746933Y-81771800D01*
X121727768Y-81802396D01*
X121706295Y-81835375D01*
X121683825Y-81868779D01*
X121661666Y-81900649D01*
X121641127Y-81929028D01*
X121623517Y-81951957D01*
X121610146Y-81967478D01*
X121604669Y-81972442D01*
X121579139Y-81984348D01*
X121548769Y-81989467D01*
X121519291Y-81987192D01*
X121506256Y-81982902D01*
X121477890Y-81963824D01*
X121456552Y-81937111D01*
X121443882Y-81905857D01*
X121441519Y-81873158D01*
X121443054Y-81863581D01*
X121448580Y-81849938D01*
X121460305Y-81828320D01*
X121476881Y-81800718D01*
X121496958Y-81769120D01*
X121519185Y-81735515D01*
X121542212Y-81701892D01*
X121564691Y-81670240D01*
X121585270Y-81642549D01*
X121602600Y-81620807D01*
X121615331Y-81607004D01*
X121619336Y-81603829D01*
X121646509Y-81593788D01*
X121672123Y-81591373D01*
X121706747Y-81597149D01*
G37*
X121706747Y-81597149D02*
X121736366Y-81613218D01*
X121759289Y-81637615D01*
X121773825Y-81668373D01*
X121778284Y-81703525D01*
X121777495Y-81713898D01*
X121773105Y-81725593D01*
X121762482Y-81745547D01*
X121746933Y-81771800D01*
X121727768Y-81802396D01*
X121706295Y-81835375D01*
X121683825Y-81868779D01*
X121661666Y-81900649D01*
X121641127Y-81929028D01*
X121623517Y-81951957D01*
X121610146Y-81967478D01*
X121604669Y-81972442D01*
X121579139Y-81984348D01*
X121548769Y-81989467D01*
X121519291Y-81987192D01*
X121506256Y-81982902D01*
X121477890Y-81963824D01*
X121456552Y-81937111D01*
X121443882Y-81905857D01*
X121441519Y-81873158D01*
X121443054Y-81863581D01*
X121448580Y-81849938D01*
X121460305Y-81828320D01*
X121476881Y-81800718D01*
X121496958Y-81769120D01*
X121519185Y-81735515D01*
X121542212Y-81701892D01*
X121564691Y-81670240D01*
X121585270Y-81642549D01*
X121602600Y-81620807D01*
X121615331Y-81607004D01*
X121619336Y-81603829D01*
X121646509Y-81593788D01*
X121672123Y-81591373D01*
X121706747Y-81597149D01*
G36*
X122053492Y-82540367D02*
G01*
X122074494Y-82543450D01*
X122091051Y-82549652D01*
X122105193Y-82559302D01*
X122118951Y-82572728D01*
X122121268Y-82575267D01*
X122141177Y-82605829D01*
X122149177Y-82639020D01*
X122145215Y-82672918D01*
X122129241Y-82705601D01*
X122124942Y-82711392D01*
X122114675Y-82722704D01*
X122102539Y-82731699D01*
X122086669Y-82738923D01*
X122065202Y-82744921D01*
X122036272Y-82750242D01*
X121998015Y-82755431D01*
X121959759Y-82759820D01*
X121909538Y-82765154D01*
X121870159Y-82768861D01*
X121839874Y-82770975D01*
X121816935Y-82771532D01*
X121799593Y-82770564D01*
X121786100Y-82768107D01*
X121774708Y-82764195D01*
X121773075Y-82763486D01*
X121744983Y-82744740D01*
X121725448Y-82718910D01*
X121714809Y-82688596D01*
X121713407Y-82656399D01*
X121721583Y-82624920D01*
X121739679Y-82596759D01*
X121749923Y-82586879D01*
X121760356Y-82579308D01*
X121773000Y-82572995D01*
X121789520Y-82567593D01*
X121811579Y-82562756D01*
X121840843Y-82558137D01*
X121878976Y-82553389D01*
X121927641Y-82548166D01*
X121943498Y-82546560D01*
X121990025Y-82542250D01*
X122026013Y-82540077D01*
X122053492Y-82540367D01*
G37*
X122053492Y-82540367D02*
X122074494Y-82543450D01*
X122091051Y-82549652D01*
X122105193Y-82559302D01*
X122118951Y-82572728D01*
X122121268Y-82575267D01*
X122141177Y-82605829D01*
X122149177Y-82639020D01*
X122145215Y-82672918D01*
X122129241Y-82705601D01*
X122124942Y-82711392D01*
X122114675Y-82722704D01*
X122102539Y-82731699D01*
X122086669Y-82738923D01*
X122065202Y-82744921D01*
X122036272Y-82750242D01*
X121998015Y-82755431D01*
X121959759Y-82759820D01*
X121909538Y-82765154D01*
X121870159Y-82768861D01*
X121839874Y-82770975D01*
X121816935Y-82771532D01*
X121799593Y-82770564D01*
X121786100Y-82768107D01*
X121774708Y-82764195D01*
X121773075Y-82763486D01*
X121744983Y-82744740D01*
X121725448Y-82718910D01*
X121714809Y-82688596D01*
X121713407Y-82656399D01*
X121721583Y-82624920D01*
X121739679Y-82596759D01*
X121749923Y-82586879D01*
X121760356Y-82579308D01*
X121773000Y-82572995D01*
X121789520Y-82567593D01*
X121811579Y-82562756D01*
X121840843Y-82558137D01*
X121878976Y-82553389D01*
X121927641Y-82548166D01*
X121943498Y-82546560D01*
X121990025Y-82542250D01*
X122026013Y-82540077D01*
X122053492Y-82540367D01*
G36*
X119490098Y-82659147D02*
G01*
X119518065Y-82684924D01*
X119535340Y-82715027D01*
X119541906Y-82747324D01*
X119537742Y-82779681D01*
X119522829Y-82809967D01*
X119497148Y-82836049D01*
X119491743Y-82839890D01*
X119482563Y-82845240D01*
X119471791Y-82849196D01*
X119457170Y-82852090D01*
X119436444Y-82854252D01*
X119407354Y-82856014D01*
X119371244Y-82857566D01*
X119334001Y-82859079D01*
X119298605Y-82860621D01*
X119268201Y-82862049D01*
X119245933Y-82863217D01*
X119239425Y-82863618D01*
X119215607Y-82863934D01*
X119193109Y-82862205D01*
X119186229Y-82861017D01*
X119154809Y-82848163D01*
X119130272Y-82826518D01*
X119113614Y-82798541D01*
X119105827Y-82766693D01*
X119107905Y-82733434D01*
X119120843Y-82701224D01*
X119121350Y-82700394D01*
X119131215Y-82686300D01*
X119142461Y-82675184D01*
X119156711Y-82666634D01*
X119175587Y-82660241D01*
X119200713Y-82655595D01*
X119233710Y-82652285D01*
X119276202Y-82649902D01*
X119328339Y-82648078D01*
X119468025Y-82643966D01*
X119490098Y-82659147D01*
G37*
X119490098Y-82659147D02*
X119518065Y-82684924D01*
X119535340Y-82715027D01*
X119541906Y-82747324D01*
X119537742Y-82779681D01*
X119522829Y-82809967D01*
X119497148Y-82836049D01*
X119491743Y-82839890D01*
X119482563Y-82845240D01*
X119471791Y-82849196D01*
X119457170Y-82852090D01*
X119436444Y-82854252D01*
X119407354Y-82856014D01*
X119371244Y-82857566D01*
X119334001Y-82859079D01*
X119298605Y-82860621D01*
X119268201Y-82862049D01*
X119245933Y-82863217D01*
X119239425Y-82863618D01*
X119215607Y-82863934D01*
X119193109Y-82862205D01*
X119186229Y-82861017D01*
X119154809Y-82848163D01*
X119130272Y-82826518D01*
X119113614Y-82798541D01*
X119105827Y-82766693D01*
X119107905Y-82733434D01*
X119120843Y-82701224D01*
X119121350Y-82700394D01*
X119131215Y-82686300D01*
X119142461Y-82675184D01*
X119156711Y-82666634D01*
X119175587Y-82660241D01*
X119200713Y-82655595D01*
X119233710Y-82652285D01*
X119276202Y-82649902D01*
X119328339Y-82648078D01*
X119468025Y-82643966D01*
X119490098Y-82659147D01*
G36*
X120662979Y-81843595D02*
G01*
X120720904Y-81847788D01*
X120771470Y-81854671D01*
X120784056Y-81857135D01*
X120889333Y-81885101D01*
X120989524Y-81922844D01*
X121082744Y-81969580D01*
X121140146Y-82005385D01*
X121197866Y-82049653D01*
X121254900Y-82102748D01*
X121308897Y-82161927D01*
X121357504Y-82224448D01*
X121398370Y-82287568D01*
X121423589Y-82335956D01*
X121460751Y-82430139D01*
X121485876Y-82525234D01*
X121499323Y-82623053D01*
X121501448Y-82725412D01*
X121501276Y-82730342D01*
X121496131Y-82805917D01*
X121486040Y-82875249D01*
X121470112Y-82941710D01*
X121447451Y-83008673D01*
X121417162Y-83079510D01*
X121398336Y-83118525D01*
X121371366Y-83169560D01*
X121342087Y-83218414D01*
X121308823Y-83267520D01*
X121269892Y-83319311D01*
X121223617Y-83376220D01*
X121206619Y-83396337D01*
X121164143Y-83446874D01*
X121129321Y-83489876D01*
X121100973Y-83526932D01*
X121077917Y-83559631D01*
X121058972Y-83589559D01*
X121046398Y-83611800D01*
X121029969Y-83643812D01*
X121016433Y-83672915D01*
X121006524Y-83697241D01*
X121000978Y-83714920D01*
X121000527Y-83724086D01*
X121001931Y-83724950D01*
X121015032Y-83730545D01*
X121027495Y-83744657D01*
X121036593Y-83763277D01*
X121039650Y-83780398D01*
X121034962Y-83807908D01*
X121020628Y-83827251D01*
X120996241Y-83838968D01*
X120995851Y-83839074D01*
X120981610Y-83843659D01*
X120973869Y-83850062D01*
X120969906Y-83862123D01*
X120967563Y-83878944D01*
X120964613Y-83905473D01*
X120963904Y-83921855D01*
X120965972Y-83930528D01*
X120971350Y-83933930D01*
X120979742Y-83934500D01*
X121004685Y-83939673D01*
X121023522Y-83955679D01*
X121030462Y-83966901D01*
X121036913Y-83991585D01*
X121032244Y-84015486D01*
X121017872Y-84035803D01*
X120995215Y-84049736D01*
X120987262Y-84052192D01*
X120977491Y-84055481D01*
X120972268Y-84061391D01*
X120970177Y-84073309D01*
X120969800Y-84093938D01*
X120970259Y-84114944D01*
X120972325Y-84126210D01*
X120977031Y-84130682D01*
X120982917Y-84131350D01*
X121006398Y-84137278D01*
X121025059Y-84154732D01*
X121030462Y-84163751D01*
X121037366Y-84188760D01*
X121032925Y-84212035D01*
X121018488Y-84231531D01*
X120995406Y-84245201D01*
X120973277Y-84250396D01*
X120958337Y-84252554D01*
X120948060Y-84256614D01*
X120939617Y-84265118D01*
X120930177Y-84280607D01*
X120921493Y-84296908D01*
X120887041Y-84349468D01*
X120843138Y-84395532D01*
X120792004Y-84433172D01*
X120735859Y-84460457D01*
X120731675Y-84461974D01*
X120695354Y-84471390D01*
X120653062Y-84477005D01*
X120609576Y-84478583D01*
X120569674Y-84475887D01*
X120545811Y-84471157D01*
X120488413Y-84448780D01*
X120437517Y-84416170D01*
X120394637Y-84374362D01*
X120383917Y-84360663D01*
X120367917Y-84339482D01*
X120352363Y-84319877D01*
X120350863Y-84318109D01*
X120494459Y-84318109D01*
X120496463Y-84321520D01*
X120497499Y-84322705D01*
X120514377Y-84335917D01*
X120539265Y-84349031D01*
X120567634Y-84359940D01*
X120589636Y-84365630D01*
X120634988Y-84368485D01*
X120681436Y-84359637D01*
X120712995Y-84347498D01*
X120731227Y-84337690D01*
X120751513Y-84324464D01*
X120771426Y-84309751D01*
X120788539Y-84295484D01*
X120800424Y-84283593D01*
X120804655Y-84276012D01*
X120804158Y-84274944D01*
X120797396Y-84275020D01*
X120779762Y-84276513D01*
X120752980Y-84279239D01*
X120718777Y-84283016D01*
X120678880Y-84287661D01*
X120644297Y-84291847D01*
X120595873Y-84297844D01*
X120558708Y-84302618D01*
X120531450Y-84306456D01*
X120512748Y-84309639D01*
X120501250Y-84312453D01*
X120495604Y-84315182D01*
X120494459Y-84318109D01*
X120350863Y-84318109D01*
X120341965Y-84307622D01*
X120329077Y-84286374D01*
X120321601Y-84259997D01*
X120317651Y-84236315D01*
X120312438Y-84207988D01*
X120309007Y-84190601D01*
X120304167Y-84169085D01*
X120299356Y-84156894D01*
X120292435Y-84150838D01*
X120281262Y-84147728D01*
X120280075Y-84147503D01*
X120256795Y-84137606D01*
X120253219Y-84133588D01*
X120410482Y-84133588D01*
X120414390Y-84153106D01*
X120419337Y-84175444D01*
X120424073Y-84188002D01*
X120430344Y-84193547D01*
X120439898Y-84194846D01*
X120440752Y-84194850D01*
X120451119Y-84194085D01*
X120472304Y-84191928D01*
X120502526Y-84188580D01*
X120540004Y-84184244D01*
X120582958Y-84179123D01*
X120629606Y-84173419D01*
X120635587Y-84172678D01*
X120694332Y-84165466D01*
X120741709Y-84159679D01*
X120778926Y-84154958D01*
X120807188Y-84150940D01*
X120827702Y-84147264D01*
X120841675Y-84143570D01*
X120850312Y-84139496D01*
X120854820Y-84134680D01*
X120856405Y-84128761D01*
X120856275Y-84121378D01*
X120855634Y-84112171D01*
X120855500Y-84106819D01*
X120855500Y-84070163D01*
X120632991Y-84101876D01*
X120410482Y-84133588D01*
X120253219Y-84133588D01*
X120241135Y-84120011D01*
X120233969Y-84097783D01*
X120236171Y-84073986D01*
X120248616Y-84051681D01*
X120251761Y-84048311D01*
X120266668Y-84036461D01*
X120280629Y-84030096D01*
X120283511Y-84029750D01*
X120290457Y-84028653D01*
X120294421Y-84023535D01*
X120296226Y-84011653D01*
X120296694Y-83990263D01*
X120296700Y-83985727D01*
X120296401Y-83967061D01*
X120411000Y-83967061D01*
X120411000Y-84012323D01*
X120434812Y-84008640D01*
X120446987Y-84006863D01*
X120469967Y-84003608D01*
X120501975Y-83999123D01*
X120541234Y-83993657D01*
X120585968Y-83987457D01*
X120634399Y-83980770D01*
X120652300Y-83978305D01*
X120700302Y-83971674D01*
X120744064Y-83965580D01*
X120782052Y-83960240D01*
X120812733Y-83955872D01*
X120834573Y-83952693D01*
X120846040Y-83950920D01*
X120847405Y-83950642D01*
X120848650Y-83944321D01*
X120850585Y-83928636D01*
X120852808Y-83906875D01*
X120852977Y-83905067D01*
X120857118Y-83860503D01*
X120641996Y-83890889D01*
X120590983Y-83898071D01*
X120543829Y-83904662D01*
X120502046Y-83910456D01*
X120467144Y-83915245D01*
X120440634Y-83918821D01*
X120424025Y-83920976D01*
X120418937Y-83921538D01*
X120414344Y-83926495D01*
X120411767Y-83941768D01*
X120411000Y-83967061D01*
X120296401Y-83967061D01*
X120296325Y-83962321D01*
X120294601Y-83948551D01*
X120290625Y-83941359D01*
X120283492Y-83937691D01*
X120282412Y-83937351D01*
X120259368Y-83925057D01*
X120244076Y-83906443D01*
X120236995Y-83884446D01*
X120238584Y-83861999D01*
X120249300Y-83842039D01*
X120265549Y-83829414D01*
X120274004Y-83824688D01*
X120279167Y-83819445D01*
X120280993Y-83811443D01*
X120279438Y-83798437D01*
X120274459Y-83778185D01*
X120266011Y-83748443D01*
X120263805Y-83740825D01*
X120250257Y-83699097D01*
X120233973Y-83659265D01*
X120213923Y-83619680D01*
X120189076Y-83578696D01*
X120158403Y-83534662D01*
X120120874Y-83485930D01*
X120075459Y-83430854D01*
X120055518Y-83407450D01*
X119989117Y-83326874D01*
X119932701Y-83251091D01*
X119885345Y-83178396D01*
X119846122Y-83107083D01*
X119814107Y-83035449D01*
X119788372Y-82961788D01*
X119767992Y-82884395D01*
X119765705Y-82874050D01*
X119759890Y-82837344D01*
X119755874Y-82791469D01*
X119753660Y-82739831D01*
X119753404Y-82705775D01*
X119862861Y-82705775D01*
X119864467Y-82764459D01*
X119869434Y-82816148D01*
X119878595Y-82865882D01*
X119892778Y-82918702D01*
X119903472Y-82952256D01*
X119924077Y-83008711D01*
X119947628Y-83061893D01*
X119975348Y-83113793D01*
X120008459Y-83166402D01*
X120048181Y-83221713D01*
X120095737Y-83281717D01*
X120132044Y-83324900D01*
X120186186Y-83389344D01*
X120231861Y-83446675D01*
X120269951Y-83498381D01*
X120301336Y-83545945D01*
X120326897Y-83590855D01*
X120347514Y-83634596D01*
X120364068Y-83678654D01*
X120377439Y-83724515D01*
X120383246Y-83748762D01*
X120389465Y-83774667D01*
X120394616Y-83790436D01*
X120399830Y-83798443D01*
X120406241Y-83801059D01*
X120408270Y-83801150D01*
X120417494Y-83800270D01*
X120437751Y-83797770D01*
X120467510Y-83793858D01*
X120505237Y-83788741D01*
X120549398Y-83782626D01*
X120598460Y-83775721D01*
X120642775Y-83769400D01*
X120694358Y-83762017D01*
X120741958Y-83755242D01*
X120784114Y-83749280D01*
X120819363Y-83744336D01*
X120846246Y-83740615D01*
X120863301Y-83738323D01*
X120869015Y-83737650D01*
X120873114Y-83732031D01*
X120879305Y-83717209D01*
X120886336Y-83696230D01*
X120887222Y-83693293D01*
X120902478Y-83650806D01*
X120923963Y-83602881D01*
X120949553Y-83553645D01*
X120977122Y-83507228D01*
X121000674Y-83472872D01*
X121017217Y-83451359D01*
X121039808Y-83422956D01*
X121066221Y-83390413D01*
X121094232Y-83356475D01*
X121115381Y-83331250D01*
X121173766Y-83259637D01*
X121222923Y-83193580D01*
X121263960Y-83131258D01*
X121297989Y-83070850D01*
X121326120Y-83010537D01*
X121349461Y-82948497D01*
X121350327Y-82945906D01*
X121367594Y-82889739D01*
X121379444Y-82839721D01*
X121386684Y-82790926D01*
X121390118Y-82738432D01*
X121390693Y-82699425D01*
X121384725Y-82601105D01*
X121367043Y-82507337D01*
X121337985Y-82418656D01*
X121297885Y-82335598D01*
X121247079Y-82258699D01*
X121185903Y-82188493D01*
X121114691Y-82125517D01*
X121033780Y-82070307D01*
X120977166Y-82039347D01*
X120889398Y-82002163D01*
X120796623Y-81975248D01*
X120700812Y-81958766D01*
X120603937Y-81952881D01*
X120507970Y-81957758D01*
X120414882Y-81973562D01*
X120362289Y-81988021D01*
X120277899Y-82021354D01*
X120197829Y-82066006D01*
X120123546Y-82120926D01*
X120056513Y-82185057D01*
X120009294Y-82242015D01*
X119977703Y-82287786D01*
X119951278Y-82334160D01*
X119927909Y-82385236D01*
X119906845Y-82441203D01*
X119887213Y-82503391D01*
X119873927Y-82560695D01*
X119866142Y-82618203D01*
X119863012Y-82681005D01*
X119862861Y-82705775D01*
X119753404Y-82705775D01*
X119753253Y-82685831D01*
X119754658Y-82632875D01*
X119757878Y-82584366D01*
X119762917Y-82543709D01*
X119765283Y-82531150D01*
X119793455Y-82426198D01*
X119831655Y-82327906D01*
X119879529Y-82236924D01*
X119936725Y-82153903D01*
X120002891Y-82079493D01*
X120017393Y-82065492D01*
X120095005Y-82001134D01*
X120180096Y-81946851D01*
X120271986Y-81902986D01*
X120369991Y-81869882D01*
X120436400Y-81854348D01*
X120484407Y-81847468D01*
X120540796Y-81843403D01*
X120601632Y-81842123D01*
X120662979Y-81843595D01*
G37*
X120662979Y-81843595D02*
X120720904Y-81847788D01*
X120771470Y-81854671D01*
X120784056Y-81857135D01*
X120889333Y-81885101D01*
X120989524Y-81922844D01*
X121082744Y-81969580D01*
X121140146Y-82005385D01*
X121197866Y-82049653D01*
X121254900Y-82102748D01*
X121308897Y-82161927D01*
X121357504Y-82224448D01*
X121398370Y-82287568D01*
X121423589Y-82335956D01*
X121460751Y-82430139D01*
X121485876Y-82525234D01*
X121499323Y-82623053D01*
X121501448Y-82725412D01*
X121501276Y-82730342D01*
X121496131Y-82805917D01*
X121486040Y-82875249D01*
X121470112Y-82941710D01*
X121447451Y-83008673D01*
X121417162Y-83079510D01*
X121398336Y-83118525D01*
X121371366Y-83169560D01*
X121342087Y-83218414D01*
X121308823Y-83267520D01*
X121269892Y-83319311D01*
X121223617Y-83376220D01*
X121206619Y-83396337D01*
X121164143Y-83446874D01*
X121129321Y-83489876D01*
X121100973Y-83526932D01*
X121077917Y-83559631D01*
X121058972Y-83589559D01*
X121046398Y-83611800D01*
X121029969Y-83643812D01*
X121016433Y-83672915D01*
X121006524Y-83697241D01*
X121000978Y-83714920D01*
X121000527Y-83724086D01*
X121001931Y-83724950D01*
X121015032Y-83730545D01*
X121027495Y-83744657D01*
X121036593Y-83763277D01*
X121039650Y-83780398D01*
X121034962Y-83807908D01*
X121020628Y-83827251D01*
X120996241Y-83838968D01*
X120995851Y-83839074D01*
X120981610Y-83843659D01*
X120973869Y-83850062D01*
X120969906Y-83862123D01*
X120967563Y-83878944D01*
X120964613Y-83905473D01*
X120963904Y-83921855D01*
X120965972Y-83930528D01*
X120971350Y-83933930D01*
X120979742Y-83934500D01*
X121004685Y-83939673D01*
X121023522Y-83955679D01*
X121030462Y-83966901D01*
X121036913Y-83991585D01*
X121032244Y-84015486D01*
X121017872Y-84035803D01*
X120995215Y-84049736D01*
X120987262Y-84052192D01*
X120977491Y-84055481D01*
X120972268Y-84061391D01*
X120970177Y-84073309D01*
X120969800Y-84093938D01*
X120970259Y-84114944D01*
X120972325Y-84126210D01*
X120977031Y-84130682D01*
X120982917Y-84131350D01*
X121006398Y-84137278D01*
X121025059Y-84154732D01*
X121030462Y-84163751D01*
X121037366Y-84188760D01*
X121032925Y-84212035D01*
X121018488Y-84231531D01*
X120995406Y-84245201D01*
X120973277Y-84250396D01*
X120958337Y-84252554D01*
X120948060Y-84256614D01*
X120939617Y-84265118D01*
X120930177Y-84280607D01*
X120921493Y-84296908D01*
X120887041Y-84349468D01*
X120843138Y-84395532D01*
X120792004Y-84433172D01*
X120735859Y-84460457D01*
X120731675Y-84461974D01*
X120695354Y-84471390D01*
X120653062Y-84477005D01*
X120609576Y-84478583D01*
X120569674Y-84475887D01*
X120545811Y-84471157D01*
X120488413Y-84448780D01*
X120437517Y-84416170D01*
X120394637Y-84374362D01*
X120383917Y-84360663D01*
X120367917Y-84339482D01*
X120352363Y-84319877D01*
X120350863Y-84318109D01*
X120494459Y-84318109D01*
X120496463Y-84321520D01*
X120497499Y-84322705D01*
X120514377Y-84335917D01*
X120539265Y-84349031D01*
X120567634Y-84359940D01*
X120589636Y-84365630D01*
X120634988Y-84368485D01*
X120681436Y-84359637D01*
X120712995Y-84347498D01*
X120731227Y-84337690D01*
X120751513Y-84324464D01*
X120771426Y-84309751D01*
X120788539Y-84295484D01*
X120800424Y-84283593D01*
X120804655Y-84276012D01*
X120804158Y-84274944D01*
X120797396Y-84275020D01*
X120779762Y-84276513D01*
X120752980Y-84279239D01*
X120718777Y-84283016D01*
X120678880Y-84287661D01*
X120644297Y-84291847D01*
X120595873Y-84297844D01*
X120558708Y-84302618D01*
X120531450Y-84306456D01*
X120512748Y-84309639D01*
X120501250Y-84312453D01*
X120495604Y-84315182D01*
X120494459Y-84318109D01*
X120350863Y-84318109D01*
X120341965Y-84307622D01*
X120329077Y-84286374D01*
X120321601Y-84259997D01*
X120317651Y-84236315D01*
X120312438Y-84207988D01*
X120309007Y-84190601D01*
X120304167Y-84169085D01*
X120299356Y-84156894D01*
X120292435Y-84150838D01*
X120281262Y-84147728D01*
X120280075Y-84147503D01*
X120256795Y-84137606D01*
X120253219Y-84133588D01*
X120410482Y-84133588D01*
X120414390Y-84153106D01*
X120419337Y-84175444D01*
X120424073Y-84188002D01*
X120430344Y-84193547D01*
X120439898Y-84194846D01*
X120440752Y-84194850D01*
X120451119Y-84194085D01*
X120472304Y-84191928D01*
X120502526Y-84188580D01*
X120540004Y-84184244D01*
X120582958Y-84179123D01*
X120629606Y-84173419D01*
X120635587Y-84172678D01*
X120694332Y-84165466D01*
X120741709Y-84159679D01*
X120778926Y-84154958D01*
X120807188Y-84150940D01*
X120827702Y-84147264D01*
X120841675Y-84143570D01*
X120850312Y-84139496D01*
X120854820Y-84134680D01*
X120856405Y-84128761D01*
X120856275Y-84121378D01*
X120855634Y-84112171D01*
X120855500Y-84106819D01*
X120855500Y-84070163D01*
X120632991Y-84101876D01*
X120410482Y-84133588D01*
X120253219Y-84133588D01*
X120241135Y-84120011D01*
X120233969Y-84097783D01*
X120236171Y-84073986D01*
X120248616Y-84051681D01*
X120251761Y-84048311D01*
X120266668Y-84036461D01*
X120280629Y-84030096D01*
X120283511Y-84029750D01*
X120290457Y-84028653D01*
X120294421Y-84023535D01*
X120296226Y-84011653D01*
X120296694Y-83990263D01*
X120296700Y-83985727D01*
X120296401Y-83967061D01*
X120411000Y-83967061D01*
X120411000Y-84012323D01*
X120434812Y-84008640D01*
X120446987Y-84006863D01*
X120469967Y-84003608D01*
X120501975Y-83999123D01*
X120541234Y-83993657D01*
X120585968Y-83987457D01*
X120634399Y-83980770D01*
X120652300Y-83978305D01*
X120700302Y-83971674D01*
X120744064Y-83965580D01*
X120782052Y-83960240D01*
X120812733Y-83955872D01*
X120834573Y-83952693D01*
X120846040Y-83950920D01*
X120847405Y-83950642D01*
X120848650Y-83944321D01*
X120850585Y-83928636D01*
X120852808Y-83906875D01*
X120852977Y-83905067D01*
X120857118Y-83860503D01*
X120641996Y-83890889D01*
X120590983Y-83898071D01*
X120543829Y-83904662D01*
X120502046Y-83910456D01*
X120467144Y-83915245D01*
X120440634Y-83918821D01*
X120424025Y-83920976D01*
X120418937Y-83921538D01*
X120414344Y-83926495D01*
X120411767Y-83941768D01*
X120411000Y-83967061D01*
X120296401Y-83967061D01*
X120296325Y-83962321D01*
X120294601Y-83948551D01*
X120290625Y-83941359D01*
X120283492Y-83937691D01*
X120282412Y-83937351D01*
X120259368Y-83925057D01*
X120244076Y-83906443D01*
X120236995Y-83884446D01*
X120238584Y-83861999D01*
X120249300Y-83842039D01*
X120265549Y-83829414D01*
X120274004Y-83824688D01*
X120279167Y-83819445D01*
X120280993Y-83811443D01*
X120279438Y-83798437D01*
X120274459Y-83778185D01*
X120266011Y-83748443D01*
X120263805Y-83740825D01*
X120250257Y-83699097D01*
X120233973Y-83659265D01*
X120213923Y-83619680D01*
X120189076Y-83578696D01*
X120158403Y-83534662D01*
X120120874Y-83485930D01*
X120075459Y-83430854D01*
X120055518Y-83407450D01*
X119989117Y-83326874D01*
X119932701Y-83251091D01*
X119885345Y-83178396D01*
X119846122Y-83107083D01*
X119814107Y-83035449D01*
X119788372Y-82961788D01*
X119767992Y-82884395D01*
X119765705Y-82874050D01*
X119759890Y-82837344D01*
X119755874Y-82791469D01*
X119753660Y-82739831D01*
X119753404Y-82705775D01*
X119862861Y-82705775D01*
X119864467Y-82764459D01*
X119869434Y-82816148D01*
X119878595Y-82865882D01*
X119892778Y-82918702D01*
X119903472Y-82952256D01*
X119924077Y-83008711D01*
X119947628Y-83061893D01*
X119975348Y-83113793D01*
X120008459Y-83166402D01*
X120048181Y-83221713D01*
X120095737Y-83281717D01*
X120132044Y-83324900D01*
X120186186Y-83389344D01*
X120231861Y-83446675D01*
X120269951Y-83498381D01*
X120301336Y-83545945D01*
X120326897Y-83590855D01*
X120347514Y-83634596D01*
X120364068Y-83678654D01*
X120377439Y-83724515D01*
X120383246Y-83748762D01*
X120389465Y-83774667D01*
X120394616Y-83790436D01*
X120399830Y-83798443D01*
X120406241Y-83801059D01*
X120408270Y-83801150D01*
X120417494Y-83800270D01*
X120437751Y-83797770D01*
X120467510Y-83793858D01*
X120505237Y-83788741D01*
X120549398Y-83782626D01*
X120598460Y-83775721D01*
X120642775Y-83769400D01*
X120694358Y-83762017D01*
X120741958Y-83755242D01*
X120784114Y-83749280D01*
X120819363Y-83744336D01*
X120846246Y-83740615D01*
X120863301Y-83738323D01*
X120869015Y-83737650D01*
X120873114Y-83732031D01*
X120879305Y-83717209D01*
X120886336Y-83696230D01*
X120887222Y-83693293D01*
X120902478Y-83650806D01*
X120923963Y-83602881D01*
X120949553Y-83553645D01*
X120977122Y-83507228D01*
X121000674Y-83472872D01*
X121017217Y-83451359D01*
X121039808Y-83422956D01*
X121066221Y-83390413D01*
X121094232Y-83356475D01*
X121115381Y-83331250D01*
X121173766Y-83259637D01*
X121222923Y-83193580D01*
X121263960Y-83131258D01*
X121297989Y-83070850D01*
X121326120Y-83010537D01*
X121349461Y-82948497D01*
X121350327Y-82945906D01*
X121367594Y-82889739D01*
X121379444Y-82839721D01*
X121386684Y-82790926D01*
X121390118Y-82738432D01*
X121390693Y-82699425D01*
X121384725Y-82601105D01*
X121367043Y-82507337D01*
X121337985Y-82418656D01*
X121297885Y-82335598D01*
X121247079Y-82258699D01*
X121185903Y-82188493D01*
X121114691Y-82125517D01*
X121033780Y-82070307D01*
X120977166Y-82039347D01*
X120889398Y-82002163D01*
X120796623Y-81975248D01*
X120700812Y-81958766D01*
X120603937Y-81952881D01*
X120507970Y-81957758D01*
X120414882Y-81973562D01*
X120362289Y-81988021D01*
X120277899Y-82021354D01*
X120197829Y-82066006D01*
X120123546Y-82120926D01*
X120056513Y-82185057D01*
X120009294Y-82242015D01*
X119977703Y-82287786D01*
X119951278Y-82334160D01*
X119927909Y-82385236D01*
X119906845Y-82441203D01*
X119887213Y-82503391D01*
X119873927Y-82560695D01*
X119866142Y-82618203D01*
X119863012Y-82681005D01*
X119862861Y-82705775D01*
X119753404Y-82705775D01*
X119753253Y-82685831D01*
X119754658Y-82632875D01*
X119757878Y-82584366D01*
X119762917Y-82543709D01*
X119765283Y-82531150D01*
X119793455Y-82426198D01*
X119831655Y-82327906D01*
X119879529Y-82236924D01*
X119936725Y-82153903D01*
X120002891Y-82079493D01*
X120017393Y-82065492D01*
X120095005Y-82001134D01*
X120180096Y-81946851D01*
X120271986Y-81902986D01*
X120369991Y-81869882D01*
X120436400Y-81854348D01*
X120484407Y-81847468D01*
X120540796Y-81843403D01*
X120601632Y-81842123D01*
X120662979Y-81843595D01*
G36*
X189073974Y-81967325D02*
G01*
X189102879Y-81970050D01*
X189113882Y-81971804D01*
X189155308Y-81982982D01*
X189196079Y-82000214D01*
X189231858Y-82021404D01*
X189253426Y-82039250D01*
X189272794Y-82062683D01*
X189289274Y-82090211D01*
X189302063Y-82119308D01*
X189310358Y-82147446D01*
X189313355Y-82172098D01*
X189310251Y-82190738D01*
X189304148Y-82198762D01*
X189292077Y-82202691D01*
X189270470Y-82205313D01*
X189242423Y-82206639D01*
X189211030Y-82206682D01*
X189179388Y-82205451D01*
X189150592Y-82202957D01*
X189127736Y-82199212D01*
X189123450Y-82198120D01*
X189072421Y-82178860D01*
X189029416Y-82152502D01*
X188995768Y-82120076D01*
X188972813Y-82082609D01*
X188972404Y-82081657D01*
X188963450Y-82055756D01*
X188957322Y-82028535D01*
X188955102Y-82008723D01*
X188995061Y-82008723D01*
X188999705Y-82030224D01*
X189014280Y-82070736D01*
X189038372Y-82105210D01*
X189051687Y-82117785D01*
X189066525Y-82129265D01*
X189077436Y-82136349D01*
X189080355Y-82137450D01*
X189084602Y-82131887D01*
X189089879Y-82117785D01*
X189092349Y-82108927D01*
X189102382Y-82084261D01*
X189118853Y-82058830D01*
X189124146Y-82052440D01*
X189135659Y-82038717D01*
X189141298Y-82028910D01*
X189139824Y-82022225D01*
X189129996Y-82017870D01*
X189110575Y-82015052D01*
X189080318Y-82012977D01*
X189060843Y-82011976D01*
X188995061Y-82008723D01*
X188955102Y-82008723D01*
X188954539Y-82003705D01*
X188955620Y-81984975D01*
X188957995Y-81978700D01*
X188967620Y-81973523D01*
X188986960Y-81969668D01*
X189013085Y-81967264D01*
X189043066Y-81966440D01*
X189073974Y-81967325D01*
G37*
X189073974Y-81967325D02*
X189102879Y-81970050D01*
X189113882Y-81971804D01*
X189155308Y-81982982D01*
X189196079Y-82000214D01*
X189231858Y-82021404D01*
X189253426Y-82039250D01*
X189272794Y-82062683D01*
X189289274Y-82090211D01*
X189302063Y-82119308D01*
X189310358Y-82147446D01*
X189313355Y-82172098D01*
X189310251Y-82190738D01*
X189304148Y-82198762D01*
X189292077Y-82202691D01*
X189270470Y-82205313D01*
X189242423Y-82206639D01*
X189211030Y-82206682D01*
X189179388Y-82205451D01*
X189150592Y-82202957D01*
X189127736Y-82199212D01*
X189123450Y-82198120D01*
X189072421Y-82178860D01*
X189029416Y-82152502D01*
X188995768Y-82120076D01*
X188972813Y-82082609D01*
X188972404Y-82081657D01*
X188963450Y-82055756D01*
X188957322Y-82028535D01*
X188955102Y-82008723D01*
X188995061Y-82008723D01*
X188999705Y-82030224D01*
X189014280Y-82070736D01*
X189038372Y-82105210D01*
X189051687Y-82117785D01*
X189066525Y-82129265D01*
X189077436Y-82136349D01*
X189080355Y-82137450D01*
X189084602Y-82131887D01*
X189089879Y-82117785D01*
X189092349Y-82108927D01*
X189102382Y-82084261D01*
X189118853Y-82058830D01*
X189124146Y-82052440D01*
X189135659Y-82038717D01*
X189141298Y-82028910D01*
X189139824Y-82022225D01*
X189129996Y-82017870D01*
X189110575Y-82015052D01*
X189080318Y-82012977D01*
X189060843Y-82011976D01*
X188995061Y-82008723D01*
X188955102Y-82008723D01*
X188954539Y-82003705D01*
X188955620Y-81984975D01*
X188957995Y-81978700D01*
X188967620Y-81973523D01*
X188986960Y-81969668D01*
X189013085Y-81967264D01*
X189043066Y-81966440D01*
X189073974Y-81967325D01*
G36*
X187391271Y-81231605D02*
G01*
X187447858Y-81235093D01*
X187477542Y-81238222D01*
X187649765Y-81265382D01*
X187823662Y-81304628D01*
X187998258Y-81355624D01*
X188172579Y-81418035D01*
X188345651Y-81491525D01*
X188516499Y-81575758D01*
X188614925Y-81629824D01*
X188706475Y-81682070D01*
X188751450Y-81671480D01*
X188842205Y-81655553D01*
X188929682Y-81651572D01*
X189015099Y-81659678D01*
X189099676Y-81680012D01*
X189184632Y-81712715D01*
X189209175Y-81724365D01*
X189270931Y-81757865D01*
X189327947Y-81795508D01*
X189383184Y-81839521D01*
X189439604Y-81892127D01*
X189460117Y-81912918D01*
X189530080Y-81990867D01*
X189592642Y-82072212D01*
X189646390Y-82154893D01*
X189689908Y-82236849D01*
X189703602Y-82267692D01*
X189721851Y-82313744D01*
X189734590Y-82352800D01*
X189742701Y-82388840D01*
X189747064Y-82425842D01*
X189748561Y-82467786D01*
X189748580Y-82470825D01*
X189746663Y-82521611D01*
X189739661Y-82563400D01*
X189726534Y-82599233D01*
X189706238Y-82632153D01*
X189684439Y-82658113D01*
X189648085Y-82690847D01*
X189603509Y-82719012D01*
X189549891Y-82742913D01*
X189486414Y-82762855D01*
X189412261Y-82779144D01*
X189326611Y-82792085D01*
X189324542Y-82792341D01*
X189295842Y-82796154D01*
X189277413Y-82799596D01*
X189266874Y-82803439D01*
X189261846Y-82808456D01*
X189260314Y-82813172D01*
X189258223Y-82824475D01*
X189254456Y-82845253D01*
X189249562Y-82872478D01*
X189244444Y-82901110D01*
X189225594Y-82987283D01*
X189198663Y-83080793D01*
X189164298Y-83179747D01*
X189123147Y-83282257D01*
X189084324Y-83368640D01*
X189047250Y-83447306D01*
X189047250Y-84123363D01*
X189077412Y-84127423D01*
X189113237Y-84136331D01*
X189151860Y-84152646D01*
X189188024Y-84173956D01*
X189202565Y-84184917D01*
X189235055Y-84219569D01*
X189260623Y-84263250D01*
X189278398Y-84313828D01*
X189287508Y-84369166D01*
X189288550Y-84395689D01*
X189288483Y-84418138D01*
X189287460Y-84436236D01*
X189284247Y-84450452D01*
X189277610Y-84461255D01*
X189266313Y-84469111D01*
X189249124Y-84474491D01*
X189224808Y-84477862D01*
X189192131Y-84479692D01*
X189149858Y-84480449D01*
X189096756Y-84480603D01*
X189064774Y-84480600D01*
X189003580Y-84480399D01*
X188953469Y-84479650D01*
X188912828Y-84478132D01*
X188880045Y-84475627D01*
X188853507Y-84471912D01*
X188831602Y-84466770D01*
X188812715Y-84459979D01*
X188795236Y-84451319D01*
X188779200Y-84441634D01*
X188757779Y-84426886D01*
X188739324Y-84411414D01*
X188723127Y-84393822D01*
X188708478Y-84372718D01*
X188694665Y-84346705D01*
X188680978Y-84314390D01*
X188666708Y-84274378D01*
X188651144Y-84225275D01*
X188633576Y-84165687D01*
X188627058Y-84142925D01*
X188614024Y-84097324D01*
X188602075Y-84055825D01*
X188591659Y-84019960D01*
X188583226Y-83991263D01*
X188577222Y-83971267D01*
X188574098Y-83961505D01*
X188573791Y-83960805D01*
X188568205Y-83963454D01*
X188554396Y-83972319D01*
X188534354Y-83986064D01*
X188510067Y-84003356D01*
X188506288Y-84006096D01*
X188474129Y-84029034D01*
X188438669Y-84053645D01*
X188404825Y-84076547D01*
X188383675Y-84090429D01*
X188358723Y-84106701D01*
X188343271Y-84117600D01*
X188336014Y-84124426D01*
X188335645Y-84128478D01*
X188340858Y-84131055D01*
X188342400Y-84131493D01*
X188381747Y-84148023D01*
X188420129Y-84175410D01*
X188439842Y-84194457D01*
X188470389Y-84234193D01*
X188493157Y-84280394D01*
X188508746Y-84334637D01*
X188517758Y-84398499D01*
X188517805Y-84399061D01*
X188519640Y-84423987D01*
X188519495Y-84439874D01*
X188516688Y-84450315D01*
X188510539Y-84458904D01*
X188505478Y-84464148D01*
X188489027Y-84480600D01*
X187750551Y-84480392D01*
X187637718Y-84480352D01*
X187536876Y-84480290D01*
X187447318Y-84480197D01*
X187368336Y-84480062D01*
X187299220Y-84479873D01*
X187239263Y-84479622D01*
X187187756Y-84479296D01*
X187143991Y-84478885D01*
X187107259Y-84478380D01*
X187076854Y-84477768D01*
X187052065Y-84477040D01*
X187032185Y-84476184D01*
X187016506Y-84475191D01*
X187004319Y-84474050D01*
X186994917Y-84472750D01*
X186987589Y-84471280D01*
X186981630Y-84469630D01*
X186979261Y-84468845D01*
X186938276Y-84449709D01*
X186907473Y-84423807D01*
X186887312Y-84393460D01*
X186882939Y-84384139D01*
X186879494Y-84374913D01*
X186876846Y-84364161D01*
X186874865Y-84350261D01*
X186873423Y-84331590D01*
X186872389Y-84306527D01*
X186871633Y-84273450D01*
X186871026Y-84230737D01*
X186870506Y-84183374D01*
X186868638Y-84003623D01*
X186839651Y-83964299D01*
X186777249Y-83869134D01*
X186724579Y-83766530D01*
X186682250Y-83657886D01*
X186650874Y-83544599D01*
X186645703Y-83520196D01*
X186637019Y-83462697D01*
X186631879Y-83397153D01*
X186630282Y-83327698D01*
X186631361Y-83289364D01*
X186727849Y-83289364D01*
X186728876Y-83392509D01*
X186741569Y-83496131D01*
X186766182Y-83599254D01*
X186774784Y-83626525D01*
X186800924Y-83695197D01*
X186833783Y-83765592D01*
X186871304Y-83833901D01*
X186911433Y-83896319D01*
X186943109Y-83938328D01*
X186964450Y-83964382D01*
X186964485Y-84138353D01*
X186964645Y-84198439D01*
X186965286Y-84247113D01*
X186966687Y-84285663D01*
X186969129Y-84315377D01*
X186972891Y-84337542D01*
X186978254Y-84353444D01*
X186985498Y-84364373D01*
X186994902Y-84371613D01*
X187006748Y-84376454D01*
X187016876Y-84379160D01*
X187025899Y-84379822D01*
X187046773Y-84380471D01*
X187078652Y-84381097D01*
X187120688Y-84381696D01*
X187172033Y-84382261D01*
X187231839Y-84382784D01*
X187299258Y-84383260D01*
X187373443Y-84383681D01*
X187453546Y-84384042D01*
X187538719Y-84384335D01*
X187628114Y-84384554D01*
X187720884Y-84384692D01*
X187728325Y-84384700D01*
X188419175Y-84385350D01*
X188415205Y-84361537D01*
X188407146Y-84331632D01*
X188393733Y-84300587D01*
X188377081Y-84272249D01*
X188359307Y-84250462D01*
X188349813Y-84242662D01*
X188340412Y-84237007D01*
X188330187Y-84232141D01*
X188318161Y-84228005D01*
X188303355Y-84224542D01*
X188284790Y-84221691D01*
X188261488Y-84219395D01*
X188232470Y-84217594D01*
X188196757Y-84216229D01*
X188153372Y-84215243D01*
X188101336Y-84214576D01*
X188039670Y-84214169D01*
X187967396Y-84213963D01*
X187883535Y-84213900D01*
X187490922Y-84213900D01*
X187475336Y-84198313D01*
X187462364Y-84178523D01*
X187460877Y-84158542D01*
X187469833Y-84140266D01*
X187488191Y-84125592D01*
X187514908Y-84116416D01*
X187520865Y-84115448D01*
X187558039Y-84108737D01*
X187600961Y-84098419D01*
X187644806Y-84085855D01*
X187684747Y-84072408D01*
X187710719Y-84061895D01*
X187778169Y-84024651D01*
X187837175Y-83977986D01*
X187887633Y-83922057D01*
X187929441Y-83857020D01*
X187962495Y-83783034D01*
X187986690Y-83700254D01*
X188000179Y-83623374D01*
X188003290Y-83550503D01*
X187994622Y-83477342D01*
X187974912Y-83405750D01*
X187944898Y-83337583D01*
X187905316Y-83274700D01*
X187856905Y-83218957D01*
X187829932Y-83194603D01*
X187788792Y-83164965D01*
X187739272Y-83136414D01*
X187685652Y-83111059D01*
X187632212Y-83091010D01*
X187602625Y-83082555D01*
X187553775Y-83073667D01*
X187498430Y-83068797D01*
X187440776Y-83067946D01*
X187385001Y-83071111D01*
X187335292Y-83078293D01*
X187316875Y-83082603D01*
X187263450Y-83100211D01*
X187213182Y-83122863D01*
X187169587Y-83148808D01*
X187144505Y-83168365D01*
X187126055Y-83184083D01*
X187109284Y-83197037D01*
X187099517Y-83203428D01*
X187078776Y-83208207D01*
X187059116Y-83202483D01*
X187043538Y-83188307D01*
X187035045Y-83167728D01*
X187034300Y-83158874D01*
X187040114Y-83139090D01*
X187056479Y-83116750D01*
X187081776Y-83092931D01*
X187114385Y-83068709D01*
X187152688Y-83045162D01*
X187195067Y-83023368D01*
X187239901Y-83004403D01*
X187285574Y-82989345D01*
X187291475Y-82987734D01*
X187335358Y-82978945D01*
X187387519Y-82973092D01*
X187443846Y-82970308D01*
X187500230Y-82970728D01*
X187552559Y-82974486D01*
X187579851Y-82978320D01*
X187668191Y-82999481D01*
X187750005Y-83030672D01*
X187824716Y-83071109D01*
X187891746Y-83120007D01*
X187950517Y-83176581D01*
X188000453Y-83240046D01*
X188040977Y-83309617D01*
X188071510Y-83384510D01*
X188091475Y-83463939D01*
X188100295Y-83547121D01*
X188097392Y-83633269D01*
X188091856Y-83674312D01*
X188071245Y-83766495D01*
X188041665Y-83850984D01*
X188003419Y-83927243D01*
X187956807Y-83994736D01*
X187902130Y-84052926D01*
X187860165Y-84087150D01*
X187821261Y-84115475D01*
X187980226Y-84117171D01*
X188029205Y-84117668D01*
X188067242Y-84117896D01*
X188096091Y-84117723D01*
X188117509Y-84117019D01*
X188133253Y-84115653D01*
X188145079Y-84113491D01*
X188154742Y-84110404D01*
X188164000Y-84106259D01*
X188170660Y-84102921D01*
X188211359Y-84080847D01*
X188259322Y-84052447D01*
X188311965Y-84019414D01*
X188366703Y-83983442D01*
X188420954Y-83946223D01*
X188472133Y-83909451D01*
X188511928Y-83879312D01*
X188536332Y-83860528D01*
X188558155Y-83844210D01*
X188574843Y-83832237D01*
X188583287Y-83826770D01*
X188602657Y-83822841D01*
X188622680Y-83828390D01*
X188637545Y-83841617D01*
X188641291Y-83850752D01*
X188648016Y-83870605D01*
X188657257Y-83899668D01*
X188668550Y-83936435D01*
X188681431Y-83979398D01*
X188695435Y-84027050D01*
X188707224Y-84067850D01*
X188721706Y-84118165D01*
X188735284Y-84165009D01*
X188747515Y-84206876D01*
X188757956Y-84242262D01*
X188766163Y-84269662D01*
X188771692Y-84287570D01*
X188773901Y-84294080D01*
X188787059Y-84315484D01*
X188807374Y-84338006D01*
X188830524Y-84357336D01*
X188847170Y-84367157D01*
X188856421Y-84370788D01*
X188867328Y-84373584D01*
X188881594Y-84375654D01*
X188900923Y-84377104D01*
X188927017Y-84378043D01*
X188961580Y-84378579D01*
X189006314Y-84378818D01*
X189032142Y-84378860D01*
X189191660Y-84379000D01*
X189186358Y-84350619D01*
X189174524Y-84309489D01*
X189155414Y-84276774D01*
X189128065Y-84251728D01*
X189091514Y-84233609D01*
X189044798Y-84221671D01*
X189013981Y-84217425D01*
X189000134Y-84216260D01*
X188988285Y-84215295D01*
X188978279Y-84213602D01*
X188969961Y-84210253D01*
X188963177Y-84204319D01*
X188957772Y-84194873D01*
X188953592Y-84180987D01*
X188950480Y-84161732D01*
X188948284Y-84136180D01*
X188946848Y-84103404D01*
X188946016Y-84062475D01*
X188945636Y-84012465D01*
X188945551Y-83952447D01*
X188945606Y-83881491D01*
X188945650Y-83807625D01*
X188945650Y-83434814D01*
X188990729Y-83337128D01*
X189038746Y-83228071D01*
X189079357Y-83125184D01*
X189112307Y-83029228D01*
X189137342Y-82940962D01*
X189154208Y-82861146D01*
X189157613Y-82839125D01*
X189161175Y-82813725D01*
X189007375Y-82813594D01*
X188947005Y-82813187D01*
X188896790Y-82811873D01*
X188854200Y-82809340D01*
X188816704Y-82805281D01*
X188781772Y-82799383D01*
X188746873Y-82791339D01*
X188709476Y-82780837D01*
X188689275Y-82774638D01*
X188607192Y-82743136D01*
X188533061Y-82702777D01*
X188467497Y-82654136D01*
X188411118Y-82597786D01*
X188364536Y-82534300D01*
X188328370Y-82464253D01*
X188313559Y-82424433D01*
X188306329Y-82404899D01*
X188300140Y-82395700D01*
X188293466Y-82394733D01*
X188292340Y-82395163D01*
X188279829Y-82400284D01*
X188267231Y-82404625D01*
X188253371Y-82408271D01*
X188237070Y-82411307D01*
X188217152Y-82413819D01*
X188192440Y-82415891D01*
X188161757Y-82417609D01*
X188123925Y-82419059D01*
X188077768Y-82420325D01*
X188022108Y-82421493D01*
X187955768Y-82422649D01*
X187901075Y-82423515D01*
X187814037Y-82425008D01*
X187738425Y-82426691D01*
X187672968Y-82428694D01*
X187616390Y-82431146D01*
X187567420Y-82434178D01*
X187524783Y-82437920D01*
X187487207Y-82442501D01*
X187453418Y-82448053D01*
X187422144Y-82454704D01*
X187392110Y-82462586D01*
X187362044Y-82471827D01*
X187333802Y-82481451D01*
X187253030Y-82515005D01*
X187171881Y-82558181D01*
X187094301Y-82608658D01*
X187025979Y-82662582D01*
X186952455Y-82735096D01*
X186888818Y-82814910D01*
X186835324Y-82901049D01*
X186792226Y-82992539D01*
X186759778Y-83088404D01*
X186738235Y-83187671D01*
X186727849Y-83289364D01*
X186631361Y-83289364D01*
X186632231Y-83258464D01*
X186637724Y-83193584D01*
X186645669Y-83142478D01*
X186673143Y-83033967D01*
X186710743Y-82932753D01*
X186758956Y-82837932D01*
X186818266Y-82748600D01*
X186889159Y-82663852D01*
X186919526Y-82632373D01*
X187003099Y-82556563D01*
X187090674Y-82492385D01*
X187183472Y-82439079D01*
X187282711Y-82395885D01*
X187320186Y-82382685D01*
X187365137Y-82369139D01*
X187413050Y-82357535D01*
X187465069Y-82347769D01*
X187522340Y-82339735D01*
X187586008Y-82333326D01*
X187657218Y-82328437D01*
X187737116Y-82324961D01*
X187826846Y-82322792D01*
X187927554Y-82321825D01*
X187978568Y-82321755D01*
X188031218Y-82321683D01*
X188080573Y-82321391D01*
X188125007Y-82320907D01*
X188162894Y-82320256D01*
X188192606Y-82319466D01*
X188212518Y-82318563D01*
X188220209Y-82317795D01*
X188239548Y-82309252D01*
X188258825Y-82293160D01*
X188260653Y-82291139D01*
X188272401Y-82276386D01*
X188277522Y-82263809D01*
X188277722Y-82247527D01*
X188276536Y-82236380D01*
X188274207Y-82209983D01*
X188273870Y-82202938D01*
X188374035Y-82202938D01*
X188379985Y-82275011D01*
X188383662Y-82298283D01*
X188402104Y-82376274D01*
X188428923Y-82445746D01*
X188464432Y-82506954D01*
X188508942Y-82560150D01*
X188562768Y-82605589D01*
X188626221Y-82643524D01*
X188699615Y-82674208D01*
X188783260Y-82697894D01*
X188877472Y-82714837D01*
X188901200Y-82717870D01*
X188925385Y-82719451D01*
X188959685Y-82719924D01*
X189001576Y-82719393D01*
X189048529Y-82717967D01*
X189098021Y-82715753D01*
X189147524Y-82712858D01*
X189194512Y-82709388D01*
X189236460Y-82705450D01*
X189259975Y-82702671D01*
X189330589Y-82692813D01*
X189390090Y-82683121D01*
X189440051Y-82673187D01*
X189482046Y-82662600D01*
X189517648Y-82650952D01*
X189548432Y-82637834D01*
X189575970Y-82622836D01*
X189582430Y-82618810D01*
X189614624Y-82591202D01*
X189637052Y-82556136D01*
X189649792Y-82514180D01*
X189652920Y-82465905D01*
X189646512Y-82411879D01*
X189630645Y-82352670D01*
X189605396Y-82288848D01*
X189570841Y-82220982D01*
X189527056Y-82149641D01*
X189517389Y-82135284D01*
X189450863Y-82046328D01*
X189380344Y-81968218D01*
X189306252Y-81901290D01*
X189229010Y-81845880D01*
X189149038Y-81802325D01*
X189066758Y-81770959D01*
X189056775Y-81768038D01*
X189011956Y-81758838D01*
X188959265Y-81753607D01*
X188902895Y-81752346D01*
X188847036Y-81755055D01*
X188795881Y-81761734D01*
X188767850Y-81768009D01*
X188690202Y-81794259D01*
X188618521Y-81828575D01*
X188553903Y-81870048D01*
X188497443Y-81917768D01*
X188450237Y-81970823D01*
X188413380Y-82028304D01*
X188390431Y-82081661D01*
X188377523Y-82138306D01*
X188374035Y-82202938D01*
X188273870Y-82202938D01*
X188272794Y-82180478D01*
X188272605Y-82168537D01*
X188272550Y-82132950D01*
X188226512Y-82119463D01*
X188157614Y-82100772D01*
X188084382Y-82083908D01*
X188005892Y-82068759D01*
X187921221Y-82055217D01*
X187829444Y-82043173D01*
X187729637Y-82032517D01*
X187620877Y-82023141D01*
X187502240Y-82014935D01*
X187372801Y-82007790D01*
X187231636Y-82001597D01*
X187227975Y-82001455D01*
X187168952Y-81999106D01*
X187121139Y-81997031D01*
X187083049Y-81995096D01*
X187053199Y-81993171D01*
X187030102Y-81991124D01*
X187012275Y-81988823D01*
X186998232Y-81986136D01*
X186986488Y-81982932D01*
X186975559Y-81979079D01*
X186975549Y-81979075D01*
X186926231Y-81953587D01*
X186883616Y-81918207D01*
X186849469Y-81874687D01*
X186828862Y-81833734D01*
X186816409Y-81787116D01*
X186815061Y-81763432D01*
X186914219Y-81763432D01*
X186919326Y-81795565D01*
X186920082Y-81797975D01*
X186936022Y-81828438D01*
X186961487Y-81856331D01*
X186993322Y-81878435D01*
X187004190Y-81883696D01*
X187015259Y-81888156D01*
X187026718Y-81891689D01*
X187040321Y-81894466D01*
X187057824Y-81896658D01*
X187080982Y-81898436D01*
X187111552Y-81899971D01*
X187151288Y-81901433D01*
X187201946Y-81902995D01*
X187202575Y-81903014D01*
X187364093Y-81909014D01*
X187515817Y-81917213D01*
X187657373Y-81927566D01*
X187788388Y-81940033D01*
X187908489Y-81954571D01*
X188017304Y-81971138D01*
X188114460Y-81989691D01*
X188199584Y-82010189D01*
X188231275Y-82019252D01*
X188255920Y-82026411D01*
X188276577Y-82031925D01*
X188289698Y-82034860D01*
X188291600Y-82035097D01*
X188299618Y-82029735D01*
X188309654Y-82014384D01*
X188316516Y-82000092D01*
X188328594Y-81975133D01*
X188344146Y-81946816D01*
X188356535Y-81926449D01*
X188368317Y-81907549D01*
X188376399Y-81893278D01*
X188379191Y-81886464D01*
X188379116Y-81886300D01*
X188371988Y-81882360D01*
X188355188Y-81874368D01*
X188330740Y-81863217D01*
X188300671Y-81849799D01*
X188267005Y-81835006D01*
X188231768Y-81819731D01*
X188196986Y-81804867D01*
X188164684Y-81791306D01*
X188147175Y-81784100D01*
X188060371Y-81750565D01*
X187968883Y-81718574D01*
X187875694Y-81689013D01*
X187783788Y-81662770D01*
X187696149Y-81640729D01*
X187615761Y-81623778D01*
X187594938Y-81620061D01*
X187532630Y-81610550D01*
X187461901Y-81601614D01*
X187387031Y-81593685D01*
X187312299Y-81587191D01*
X187241983Y-81582564D01*
X187205750Y-81580935D01*
X187141747Y-81579573D01*
X187088913Y-81580742D01*
X187045898Y-81584821D01*
X187011356Y-81592189D01*
X186983936Y-81603226D01*
X186962292Y-81618312D01*
X186945074Y-81637825D01*
X186933190Y-81657635D01*
X186921646Y-81689171D01*
X186915158Y-81726202D01*
X186914219Y-81763432D01*
X186815061Y-81763432D01*
X186813629Y-81738300D01*
X186819693Y-81689223D01*
X186833766Y-81641820D01*
X186855018Y-81598028D01*
X186882615Y-81559783D01*
X186915726Y-81529021D01*
X186953519Y-81507679D01*
X186971561Y-81501733D01*
X187000898Y-81494122D01*
X187003863Y-81462368D01*
X187102958Y-81462368D01*
X187174991Y-81466657D01*
X187328496Y-81479863D01*
X187487058Y-81501198D01*
X187646609Y-81529960D01*
X187803077Y-81565447D01*
X187901321Y-81591823D01*
X187978835Y-81615395D01*
X188060256Y-81642654D01*
X188142716Y-81672498D01*
X188223343Y-81703823D01*
X188299269Y-81735528D01*
X188367623Y-81766507D01*
X188409075Y-81786988D01*
X188429576Y-81797038D01*
X188446175Y-81804227D01*
X188455011Y-81806944D01*
X188463141Y-81803705D01*
X188479312Y-81794678D01*
X188501111Y-81781281D01*
X188523872Y-81766445D01*
X188584897Y-81725640D01*
X188550961Y-81705809D01*
X188522783Y-81690126D01*
X188485453Y-81670498D01*
X188441431Y-81648122D01*
X188393176Y-81624194D01*
X188343149Y-81599913D01*
X188293810Y-81576473D01*
X188247620Y-81555072D01*
X188207038Y-81536907D01*
X188180475Y-81525596D01*
X188059840Y-81479366D01*
X187934951Y-81437941D01*
X187808330Y-81401949D01*
X187682496Y-81372020D01*
X187559972Y-81348780D01*
X187443279Y-81332859D01*
X187386725Y-81327753D01*
X187324026Y-81326478D01*
X187267158Y-81331899D01*
X187217156Y-81343590D01*
X187175056Y-81361123D01*
X187141897Y-81384073D01*
X187118713Y-81412014D01*
X187106856Y-81442879D01*
X187102958Y-81462368D01*
X187003863Y-81462368D01*
X187004718Y-81453214D01*
X187015509Y-81400455D01*
X187037204Y-81353911D01*
X187069392Y-81314028D01*
X187111664Y-81281248D01*
X187163611Y-81256017D01*
X187196225Y-81245500D01*
X187234083Y-81238010D01*
X187281279Y-81233144D01*
X187334710Y-81230982D01*
X187391271Y-81231605D01*
G37*
X187391271Y-81231605D02*
X187447858Y-81235093D01*
X187477542Y-81238222D01*
X187649765Y-81265382D01*
X187823662Y-81304628D01*
X187998258Y-81355624D01*
X188172579Y-81418035D01*
X188345651Y-81491525D01*
X188516499Y-81575758D01*
X188614925Y-81629824D01*
X188706475Y-81682070D01*
X188751450Y-81671480D01*
X188842205Y-81655553D01*
X188929682Y-81651572D01*
X189015099Y-81659678D01*
X189099676Y-81680012D01*
X189184632Y-81712715D01*
X189209175Y-81724365D01*
X189270931Y-81757865D01*
X189327947Y-81795508D01*
X189383184Y-81839521D01*
X189439604Y-81892127D01*
X189460117Y-81912918D01*
X189530080Y-81990867D01*
X189592642Y-82072212D01*
X189646390Y-82154893D01*
X189689908Y-82236849D01*
X189703602Y-82267692D01*
X189721851Y-82313744D01*
X189734590Y-82352800D01*
X189742701Y-82388840D01*
X189747064Y-82425842D01*
X189748561Y-82467786D01*
X189748580Y-82470825D01*
X189746663Y-82521611D01*
X189739661Y-82563400D01*
X189726534Y-82599233D01*
X189706238Y-82632153D01*
X189684439Y-82658113D01*
X189648085Y-82690847D01*
X189603509Y-82719012D01*
X189549891Y-82742913D01*
X189486414Y-82762855D01*
X189412261Y-82779144D01*
X189326611Y-82792085D01*
X189324542Y-82792341D01*
X189295842Y-82796154D01*
X189277413Y-82799596D01*
X189266874Y-82803439D01*
X189261846Y-82808456D01*
X189260314Y-82813172D01*
X189258223Y-82824475D01*
X189254456Y-82845253D01*
X189249562Y-82872478D01*
X189244444Y-82901110D01*
X189225594Y-82987283D01*
X189198663Y-83080793D01*
X189164298Y-83179747D01*
X189123147Y-83282257D01*
X189084324Y-83368640D01*
X189047250Y-83447306D01*
X189047250Y-84123363D01*
X189077412Y-84127423D01*
X189113237Y-84136331D01*
X189151860Y-84152646D01*
X189188024Y-84173956D01*
X189202565Y-84184917D01*
X189235055Y-84219569D01*
X189260623Y-84263250D01*
X189278398Y-84313828D01*
X189287508Y-84369166D01*
X189288550Y-84395689D01*
X189288483Y-84418138D01*
X189287460Y-84436236D01*
X189284247Y-84450452D01*
X189277610Y-84461255D01*
X189266313Y-84469111D01*
X189249124Y-84474491D01*
X189224808Y-84477862D01*
X189192131Y-84479692D01*
X189149858Y-84480449D01*
X189096756Y-84480603D01*
X189064774Y-84480600D01*
X189003580Y-84480399D01*
X188953469Y-84479650D01*
X188912828Y-84478132D01*
X188880045Y-84475627D01*
X188853507Y-84471912D01*
X188831602Y-84466770D01*
X188812715Y-84459979D01*
X188795236Y-84451319D01*
X188779200Y-84441634D01*
X188757779Y-84426886D01*
X188739324Y-84411414D01*
X188723127Y-84393822D01*
X188708478Y-84372718D01*
X188694665Y-84346705D01*
X188680978Y-84314390D01*
X188666708Y-84274378D01*
X188651144Y-84225275D01*
X188633576Y-84165687D01*
X188627058Y-84142925D01*
X188614024Y-84097324D01*
X188602075Y-84055825D01*
X188591659Y-84019960D01*
X188583226Y-83991263D01*
X188577222Y-83971267D01*
X188574098Y-83961505D01*
X188573791Y-83960805D01*
X188568205Y-83963454D01*
X188554396Y-83972319D01*
X188534354Y-83986064D01*
X188510067Y-84003356D01*
X188506288Y-84006096D01*
X188474129Y-84029034D01*
X188438669Y-84053645D01*
X188404825Y-84076547D01*
X188383675Y-84090429D01*
X188358723Y-84106701D01*
X188343271Y-84117600D01*
X188336014Y-84124426D01*
X188335645Y-84128478D01*
X188340858Y-84131055D01*
X188342400Y-84131493D01*
X188381747Y-84148023D01*
X188420129Y-84175410D01*
X188439842Y-84194457D01*
X188470389Y-84234193D01*
X188493157Y-84280394D01*
X188508746Y-84334637D01*
X188517758Y-84398499D01*
X188517805Y-84399061D01*
X188519640Y-84423987D01*
X188519495Y-84439874D01*
X188516688Y-84450315D01*
X188510539Y-84458904D01*
X188505478Y-84464148D01*
X188489027Y-84480600D01*
X187750551Y-84480392D01*
X187637718Y-84480352D01*
X187536876Y-84480290D01*
X187447318Y-84480197D01*
X187368336Y-84480062D01*
X187299220Y-84479873D01*
X187239263Y-84479622D01*
X187187756Y-84479296D01*
X187143991Y-84478885D01*
X187107259Y-84478380D01*
X187076854Y-84477768D01*
X187052065Y-84477040D01*
X187032185Y-84476184D01*
X187016506Y-84475191D01*
X187004319Y-84474050D01*
X186994917Y-84472750D01*
X186987589Y-84471280D01*
X186981630Y-84469630D01*
X186979261Y-84468845D01*
X186938276Y-84449709D01*
X186907473Y-84423807D01*
X186887312Y-84393460D01*
X186882939Y-84384139D01*
X186879494Y-84374913D01*
X186876846Y-84364161D01*
X186874865Y-84350261D01*
X186873423Y-84331590D01*
X186872389Y-84306527D01*
X186871633Y-84273450D01*
X186871026Y-84230737D01*
X186870506Y-84183374D01*
X186868638Y-84003623D01*
X186839651Y-83964299D01*
X186777249Y-83869134D01*
X186724579Y-83766530D01*
X186682250Y-83657886D01*
X186650874Y-83544599D01*
X186645703Y-83520196D01*
X186637019Y-83462697D01*
X186631879Y-83397153D01*
X186630282Y-83327698D01*
X186631361Y-83289364D01*
X186727849Y-83289364D01*
X186728876Y-83392509D01*
X186741569Y-83496131D01*
X186766182Y-83599254D01*
X186774784Y-83626525D01*
X186800924Y-83695197D01*
X186833783Y-83765592D01*
X186871304Y-83833901D01*
X186911433Y-83896319D01*
X186943109Y-83938328D01*
X186964450Y-83964382D01*
X186964485Y-84138353D01*
X186964645Y-84198439D01*
X186965286Y-84247113D01*
X186966687Y-84285663D01*
X186969129Y-84315377D01*
X186972891Y-84337542D01*
X186978254Y-84353444D01*
X186985498Y-84364373D01*
X186994902Y-84371613D01*
X187006748Y-84376454D01*
X187016876Y-84379160D01*
X187025899Y-84379822D01*
X187046773Y-84380471D01*
X187078652Y-84381097D01*
X187120688Y-84381696D01*
X187172033Y-84382261D01*
X187231839Y-84382784D01*
X187299258Y-84383260D01*
X187373443Y-84383681D01*
X187453546Y-84384042D01*
X187538719Y-84384335D01*
X187628114Y-84384554D01*
X187720884Y-84384692D01*
X187728325Y-84384700D01*
X188419175Y-84385350D01*
X188415205Y-84361537D01*
X188407146Y-84331632D01*
X188393733Y-84300587D01*
X188377081Y-84272249D01*
X188359307Y-84250462D01*
X188349813Y-84242662D01*
X188340412Y-84237007D01*
X188330187Y-84232141D01*
X188318161Y-84228005D01*
X188303355Y-84224542D01*
X188284790Y-84221691D01*
X188261488Y-84219395D01*
X188232470Y-84217594D01*
X188196757Y-84216229D01*
X188153372Y-84215243D01*
X188101336Y-84214576D01*
X188039670Y-84214169D01*
X187967396Y-84213963D01*
X187883535Y-84213900D01*
X187490922Y-84213900D01*
X187475336Y-84198313D01*
X187462364Y-84178523D01*
X187460877Y-84158542D01*
X187469833Y-84140266D01*
X187488191Y-84125592D01*
X187514908Y-84116416D01*
X187520865Y-84115448D01*
X187558039Y-84108737D01*
X187600961Y-84098419D01*
X187644806Y-84085855D01*
X187684747Y-84072408D01*
X187710719Y-84061895D01*
X187778169Y-84024651D01*
X187837175Y-83977986D01*
X187887633Y-83922057D01*
X187929441Y-83857020D01*
X187962495Y-83783034D01*
X187986690Y-83700254D01*
X188000179Y-83623374D01*
X188003290Y-83550503D01*
X187994622Y-83477342D01*
X187974912Y-83405750D01*
X187944898Y-83337583D01*
X187905316Y-83274700D01*
X187856905Y-83218957D01*
X187829932Y-83194603D01*
X187788792Y-83164965D01*
X187739272Y-83136414D01*
X187685652Y-83111059D01*
X187632212Y-83091010D01*
X187602625Y-83082555D01*
X187553775Y-83073667D01*
X187498430Y-83068797D01*
X187440776Y-83067946D01*
X187385001Y-83071111D01*
X187335292Y-83078293D01*
X187316875Y-83082603D01*
X187263450Y-83100211D01*
X187213182Y-83122863D01*
X187169587Y-83148808D01*
X187144505Y-83168365D01*
X187126055Y-83184083D01*
X187109284Y-83197037D01*
X187099517Y-83203428D01*
X187078776Y-83208207D01*
X187059116Y-83202483D01*
X187043538Y-83188307D01*
X187035045Y-83167728D01*
X187034300Y-83158874D01*
X187040114Y-83139090D01*
X187056479Y-83116750D01*
X187081776Y-83092931D01*
X187114385Y-83068709D01*
X187152688Y-83045162D01*
X187195067Y-83023368D01*
X187239901Y-83004403D01*
X187285574Y-82989345D01*
X187291475Y-82987734D01*
X187335358Y-82978945D01*
X187387519Y-82973092D01*
X187443846Y-82970308D01*
X187500230Y-82970728D01*
X187552559Y-82974486D01*
X187579851Y-82978320D01*
X187668191Y-82999481D01*
X187750005Y-83030672D01*
X187824716Y-83071109D01*
X187891746Y-83120007D01*
X187950517Y-83176581D01*
X188000453Y-83240046D01*
X188040977Y-83309617D01*
X188071510Y-83384510D01*
X188091475Y-83463939D01*
X188100295Y-83547121D01*
X188097392Y-83633269D01*
X188091856Y-83674312D01*
X188071245Y-83766495D01*
X188041665Y-83850984D01*
X188003419Y-83927243D01*
X187956807Y-83994736D01*
X187902130Y-84052926D01*
X187860165Y-84087150D01*
X187821261Y-84115475D01*
X187980226Y-84117171D01*
X188029205Y-84117668D01*
X188067242Y-84117896D01*
X188096091Y-84117723D01*
X188117509Y-84117019D01*
X188133253Y-84115653D01*
X188145079Y-84113491D01*
X188154742Y-84110404D01*
X188164000Y-84106259D01*
X188170660Y-84102921D01*
X188211359Y-84080847D01*
X188259322Y-84052447D01*
X188311965Y-84019414D01*
X188366703Y-83983442D01*
X188420954Y-83946223D01*
X188472133Y-83909451D01*
X188511928Y-83879312D01*
X188536332Y-83860528D01*
X188558155Y-83844210D01*
X188574843Y-83832237D01*
X188583287Y-83826770D01*
X188602657Y-83822841D01*
X188622680Y-83828390D01*
X188637545Y-83841617D01*
X188641291Y-83850752D01*
X188648016Y-83870605D01*
X188657257Y-83899668D01*
X188668550Y-83936435D01*
X188681431Y-83979398D01*
X188695435Y-84027050D01*
X188707224Y-84067850D01*
X188721706Y-84118165D01*
X188735284Y-84165009D01*
X188747515Y-84206876D01*
X188757956Y-84242262D01*
X188766163Y-84269662D01*
X188771692Y-84287570D01*
X188773901Y-84294080D01*
X188787059Y-84315484D01*
X188807374Y-84338006D01*
X188830524Y-84357336D01*
X188847170Y-84367157D01*
X188856421Y-84370788D01*
X188867328Y-84373584D01*
X188881594Y-84375654D01*
X188900923Y-84377104D01*
X188927017Y-84378043D01*
X188961580Y-84378579D01*
X189006314Y-84378818D01*
X189032142Y-84378860D01*
X189191660Y-84379000D01*
X189186358Y-84350619D01*
X189174524Y-84309489D01*
X189155414Y-84276774D01*
X189128065Y-84251728D01*
X189091514Y-84233609D01*
X189044798Y-84221671D01*
X189013981Y-84217425D01*
X189000134Y-84216260D01*
X188988285Y-84215295D01*
X188978279Y-84213602D01*
X188969961Y-84210253D01*
X188963177Y-84204319D01*
X188957772Y-84194873D01*
X188953592Y-84180987D01*
X188950480Y-84161732D01*
X188948284Y-84136180D01*
X188946848Y-84103404D01*
X188946016Y-84062475D01*
X188945636Y-84012465D01*
X188945551Y-83952447D01*
X188945606Y-83881491D01*
X188945650Y-83807625D01*
X188945650Y-83434814D01*
X188990729Y-83337128D01*
X189038746Y-83228071D01*
X189079357Y-83125184D01*
X189112307Y-83029228D01*
X189137342Y-82940962D01*
X189154208Y-82861146D01*
X189157613Y-82839125D01*
X189161175Y-82813725D01*
X189007375Y-82813594D01*
X188947005Y-82813187D01*
X188896790Y-82811873D01*
X188854200Y-82809340D01*
X188816704Y-82805281D01*
X188781772Y-82799383D01*
X188746873Y-82791339D01*
X188709476Y-82780837D01*
X188689275Y-82774638D01*
X188607192Y-82743136D01*
X188533061Y-82702777D01*
X188467497Y-82654136D01*
X188411118Y-82597786D01*
X188364536Y-82534300D01*
X188328370Y-82464253D01*
X188313559Y-82424433D01*
X188306329Y-82404899D01*
X188300140Y-82395700D01*
X188293466Y-82394733D01*
X188292340Y-82395163D01*
X188279829Y-82400284D01*
X188267231Y-82404625D01*
X188253371Y-82408271D01*
X188237070Y-82411307D01*
X188217152Y-82413819D01*
X188192440Y-82415891D01*
X188161757Y-82417609D01*
X188123925Y-82419059D01*
X188077768Y-82420325D01*
X188022108Y-82421493D01*
X187955768Y-82422649D01*
X187901075Y-82423515D01*
X187814037Y-82425008D01*
X187738425Y-82426691D01*
X187672968Y-82428694D01*
X187616390Y-82431146D01*
X187567420Y-82434178D01*
X187524783Y-82437920D01*
X187487207Y-82442501D01*
X187453418Y-82448053D01*
X187422144Y-82454704D01*
X187392110Y-82462586D01*
X187362044Y-82471827D01*
X187333802Y-82481451D01*
X187253030Y-82515005D01*
X187171881Y-82558181D01*
X187094301Y-82608658D01*
X187025979Y-82662582D01*
X186952455Y-82735096D01*
X186888818Y-82814910D01*
X186835324Y-82901049D01*
X186792226Y-82992539D01*
X186759778Y-83088404D01*
X186738235Y-83187671D01*
X186727849Y-83289364D01*
X186631361Y-83289364D01*
X186632231Y-83258464D01*
X186637724Y-83193584D01*
X186645669Y-83142478D01*
X186673143Y-83033967D01*
X186710743Y-82932753D01*
X186758956Y-82837932D01*
X186818266Y-82748600D01*
X186889159Y-82663852D01*
X186919526Y-82632373D01*
X187003099Y-82556563D01*
X187090674Y-82492385D01*
X187183472Y-82439079D01*
X187282711Y-82395885D01*
X187320186Y-82382685D01*
X187365137Y-82369139D01*
X187413050Y-82357535D01*
X187465069Y-82347769D01*
X187522340Y-82339735D01*
X187586008Y-82333326D01*
X187657218Y-82328437D01*
X187737116Y-82324961D01*
X187826846Y-82322792D01*
X187927554Y-82321825D01*
X187978568Y-82321755D01*
X188031218Y-82321683D01*
X188080573Y-82321391D01*
X188125007Y-82320907D01*
X188162894Y-82320256D01*
X188192606Y-82319466D01*
X188212518Y-82318563D01*
X188220209Y-82317795D01*
X188239548Y-82309252D01*
X188258825Y-82293160D01*
X188260653Y-82291139D01*
X188272401Y-82276386D01*
X188277522Y-82263809D01*
X188277722Y-82247527D01*
X188276536Y-82236380D01*
X188274207Y-82209983D01*
X188273870Y-82202938D01*
X188374035Y-82202938D01*
X188379985Y-82275011D01*
X188383662Y-82298283D01*
X188402104Y-82376274D01*
X188428923Y-82445746D01*
X188464432Y-82506954D01*
X188508942Y-82560150D01*
X188562768Y-82605589D01*
X188626221Y-82643524D01*
X188699615Y-82674208D01*
X188783260Y-82697894D01*
X188877472Y-82714837D01*
X188901200Y-82717870D01*
X188925385Y-82719451D01*
X188959685Y-82719924D01*
X189001576Y-82719393D01*
X189048529Y-82717967D01*
X189098021Y-82715753D01*
X189147524Y-82712858D01*
X189194512Y-82709388D01*
X189236460Y-82705450D01*
X189259975Y-82702671D01*
X189330589Y-82692813D01*
X189390090Y-82683121D01*
X189440051Y-82673187D01*
X189482046Y-82662600D01*
X189517648Y-82650952D01*
X189548432Y-82637834D01*
X189575970Y-82622836D01*
X189582430Y-82618810D01*
X189614624Y-82591202D01*
X189637052Y-82556136D01*
X189649792Y-82514180D01*
X189652920Y-82465905D01*
X189646512Y-82411879D01*
X189630645Y-82352670D01*
X189605396Y-82288848D01*
X189570841Y-82220982D01*
X189527056Y-82149641D01*
X189517389Y-82135284D01*
X189450863Y-82046328D01*
X189380344Y-81968218D01*
X189306252Y-81901290D01*
X189229010Y-81845880D01*
X189149038Y-81802325D01*
X189066758Y-81770959D01*
X189056775Y-81768038D01*
X189011956Y-81758838D01*
X188959265Y-81753607D01*
X188902895Y-81752346D01*
X188847036Y-81755055D01*
X188795881Y-81761734D01*
X188767850Y-81768009D01*
X188690202Y-81794259D01*
X188618521Y-81828575D01*
X188553903Y-81870048D01*
X188497443Y-81917768D01*
X188450237Y-81970823D01*
X188413380Y-82028304D01*
X188390431Y-82081661D01*
X188377523Y-82138306D01*
X188374035Y-82202938D01*
X188273870Y-82202938D01*
X188272794Y-82180478D01*
X188272605Y-82168537D01*
X188272550Y-82132950D01*
X188226512Y-82119463D01*
X188157614Y-82100772D01*
X188084382Y-82083908D01*
X188005892Y-82068759D01*
X187921221Y-82055217D01*
X187829444Y-82043173D01*
X187729637Y-82032517D01*
X187620877Y-82023141D01*
X187502240Y-82014935D01*
X187372801Y-82007790D01*
X187231636Y-82001597D01*
X187227975Y-82001455D01*
X187168952Y-81999106D01*
X187121139Y-81997031D01*
X187083049Y-81995096D01*
X187053199Y-81993171D01*
X187030102Y-81991124D01*
X187012275Y-81988823D01*
X186998232Y-81986136D01*
X186986488Y-81982932D01*
X186975559Y-81979079D01*
X186975549Y-81979075D01*
X186926231Y-81953587D01*
X186883616Y-81918207D01*
X186849469Y-81874687D01*
X186828862Y-81833734D01*
X186816409Y-81787116D01*
X186815061Y-81763432D01*
X186914219Y-81763432D01*
X186919326Y-81795565D01*
X186920082Y-81797975D01*
X186936022Y-81828438D01*
X186961487Y-81856331D01*
X186993322Y-81878435D01*
X187004190Y-81883696D01*
X187015259Y-81888156D01*
X187026718Y-81891689D01*
X187040321Y-81894466D01*
X187057824Y-81896658D01*
X187080982Y-81898436D01*
X187111552Y-81899971D01*
X187151288Y-81901433D01*
X187201946Y-81902995D01*
X187202575Y-81903014D01*
X187364093Y-81909014D01*
X187515817Y-81917213D01*
X187657373Y-81927566D01*
X187788388Y-81940033D01*
X187908489Y-81954571D01*
X188017304Y-81971138D01*
X188114460Y-81989691D01*
X188199584Y-82010189D01*
X188231275Y-82019252D01*
X188255920Y-82026411D01*
X188276577Y-82031925D01*
X188289698Y-82034860D01*
X188291600Y-82035097D01*
X188299618Y-82029735D01*
X188309654Y-82014384D01*
X188316516Y-82000092D01*
X188328594Y-81975133D01*
X188344146Y-81946816D01*
X188356535Y-81926449D01*
X188368317Y-81907549D01*
X188376399Y-81893278D01*
X188379191Y-81886464D01*
X188379116Y-81886300D01*
X188371988Y-81882360D01*
X188355188Y-81874368D01*
X188330740Y-81863217D01*
X188300671Y-81849799D01*
X188267005Y-81835006D01*
X188231768Y-81819731D01*
X188196986Y-81804867D01*
X188164684Y-81791306D01*
X188147175Y-81784100D01*
X188060371Y-81750565D01*
X187968883Y-81718574D01*
X187875694Y-81689013D01*
X187783788Y-81662770D01*
X187696149Y-81640729D01*
X187615761Y-81623778D01*
X187594938Y-81620061D01*
X187532630Y-81610550D01*
X187461901Y-81601614D01*
X187387031Y-81593685D01*
X187312299Y-81587191D01*
X187241983Y-81582564D01*
X187205750Y-81580935D01*
X187141747Y-81579573D01*
X187088913Y-81580742D01*
X187045898Y-81584821D01*
X187011356Y-81592189D01*
X186983936Y-81603226D01*
X186962292Y-81618312D01*
X186945074Y-81637825D01*
X186933190Y-81657635D01*
X186921646Y-81689171D01*
X186915158Y-81726202D01*
X186914219Y-81763432D01*
X186815061Y-81763432D01*
X186813629Y-81738300D01*
X186819693Y-81689223D01*
X186833766Y-81641820D01*
X186855018Y-81598028D01*
X186882615Y-81559783D01*
X186915726Y-81529021D01*
X186953519Y-81507679D01*
X186971561Y-81501733D01*
X187000898Y-81494122D01*
X187003863Y-81462368D01*
X187102958Y-81462368D01*
X187174991Y-81466657D01*
X187328496Y-81479863D01*
X187487058Y-81501198D01*
X187646609Y-81529960D01*
X187803077Y-81565447D01*
X187901321Y-81591823D01*
X187978835Y-81615395D01*
X188060256Y-81642654D01*
X188142716Y-81672498D01*
X188223343Y-81703823D01*
X188299269Y-81735528D01*
X188367623Y-81766507D01*
X188409075Y-81786988D01*
X188429576Y-81797038D01*
X188446175Y-81804227D01*
X188455011Y-81806944D01*
X188463141Y-81803705D01*
X188479312Y-81794678D01*
X188501111Y-81781281D01*
X188523872Y-81766445D01*
X188584897Y-81725640D01*
X188550961Y-81705809D01*
X188522783Y-81690126D01*
X188485453Y-81670498D01*
X188441431Y-81648122D01*
X188393176Y-81624194D01*
X188343149Y-81599913D01*
X188293810Y-81576473D01*
X188247620Y-81555072D01*
X188207038Y-81536907D01*
X188180475Y-81525596D01*
X188059840Y-81479366D01*
X187934951Y-81437941D01*
X187808330Y-81401949D01*
X187682496Y-81372020D01*
X187559972Y-81348780D01*
X187443279Y-81332859D01*
X187386725Y-81327753D01*
X187324026Y-81326478D01*
X187267158Y-81331899D01*
X187217156Y-81343590D01*
X187175056Y-81361123D01*
X187141897Y-81384073D01*
X187118713Y-81412014D01*
X187106856Y-81442879D01*
X187102958Y-81462368D01*
X187003863Y-81462368D01*
X187004718Y-81453214D01*
X187015509Y-81400455D01*
X187037204Y-81353911D01*
X187069392Y-81314028D01*
X187111664Y-81281248D01*
X187163611Y-81256017D01*
X187196225Y-81245500D01*
X187234083Y-81238010D01*
X187281279Y-81233144D01*
X187334710Y-81230982D01*
X187391271Y-81231605D01*
M02*
