G04 #@! TF.GenerationSoftware,KiCad,Pcbnew,(5.1.8)-1*
G04 #@! TF.CreationDate,2022-11-12T23:31:27+01:00*
G04 #@! TF.ProjectId,RetroPanel FP2,52657472-6f50-4616-9e65-6c204650322e,rev?*
G04 #@! TF.SameCoordinates,Original*
G04 #@! TF.FileFunction,Legend,Bot*
G04 #@! TF.FilePolarity,Positive*
%FSLAX46Y46*%
G04 Gerber Fmt 4.6, Leading zero omitted, Abs format (unit mm)*
G04 Created by KiCad (PCBNEW (5.1.8)-1) date 2022-11-12 23:31:27*
%MOMM*%
%LPD*%
G01*
G04 APERTURE LIST*
%ADD10C,0.100000*%
G04 APERTURE END LIST*
D10*
X154445238Y-80384904D02*
X154445238Y-80956333D01*
X154483333Y-81070619D01*
X154559523Y-81146809D01*
X154673809Y-81184904D01*
X154750000Y-81184904D01*
X153683333Y-81184904D02*
X154064285Y-81184904D01*
X154064285Y-80384904D01*
X152959523Y-81108714D02*
X152997619Y-81146809D01*
X153111904Y-81184904D01*
X153188095Y-81184904D01*
X153302380Y-81146809D01*
X153378571Y-81070619D01*
X153416666Y-80994428D01*
X153454761Y-80842047D01*
X153454761Y-80727761D01*
X153416666Y-80575380D01*
X153378571Y-80499190D01*
X153302380Y-80423000D01*
X153188095Y-80384904D01*
X153111904Y-80384904D01*
X152997619Y-80423000D01*
X152959523Y-80461095D01*
X152388095Y-80384904D02*
X152388095Y-80956333D01*
X152426190Y-81070619D01*
X152502380Y-81146809D01*
X152616666Y-81184904D01*
X152692857Y-81184904D01*
X151626190Y-81184904D02*
X152007142Y-81184904D01*
X152007142Y-80384904D01*
X150902380Y-81108714D02*
X150940476Y-81146809D01*
X151054761Y-81184904D01*
X151130952Y-81184904D01*
X151245238Y-81146809D01*
X151321428Y-81070619D01*
X151359523Y-80994428D01*
X151397619Y-80842047D01*
X151397619Y-80727761D01*
X151359523Y-80575380D01*
X151321428Y-80499190D01*
X151245238Y-80423000D01*
X151130952Y-80384904D01*
X151054761Y-80384904D01*
X150940476Y-80423000D01*
X150902380Y-80461095D01*
X150330952Y-80384904D02*
X150330952Y-80956333D01*
X150369047Y-81070619D01*
X150445238Y-81146809D01*
X150559523Y-81184904D01*
X150635714Y-81184904D01*
X149569047Y-81184904D02*
X149950000Y-81184904D01*
X149950000Y-80384904D01*
X148845238Y-81108714D02*
X148883333Y-81146809D01*
X148997619Y-81184904D01*
X149073809Y-81184904D01*
X149188095Y-81146809D01*
X149264285Y-81070619D01*
X149302380Y-80994428D01*
X149340476Y-80842047D01*
X149340476Y-80727761D01*
X149302380Y-80575380D01*
X149264285Y-80499190D01*
X149188095Y-80423000D01*
X149073809Y-80384904D01*
X148997619Y-80384904D01*
X148883333Y-80423000D01*
X148845238Y-80461095D01*
X148273809Y-80384904D02*
X148273809Y-80956333D01*
X148311904Y-81070619D01*
X148388095Y-81146809D01*
X148502380Y-81184904D01*
X148578571Y-81184904D01*
X147511904Y-81184904D02*
X147892857Y-81184904D01*
X147892857Y-80384904D01*
X146788095Y-81108714D02*
X146826190Y-81146809D01*
X146940476Y-81184904D01*
X147016666Y-81184904D01*
X147130952Y-81146809D01*
X147207142Y-81070619D01*
X147245238Y-80994428D01*
X147283333Y-80842047D01*
X147283333Y-80727761D01*
X147245238Y-80575380D01*
X147207142Y-80499190D01*
X147130952Y-80423000D01*
X147016666Y-80384904D01*
X146940476Y-80384904D01*
X146826190Y-80423000D01*
X146788095Y-80461095D01*
X155454761Y-98466904D02*
X154959523Y-98466904D01*
X155226190Y-98771666D01*
X155111904Y-98771666D01*
X155035714Y-98809761D01*
X154997619Y-98847857D01*
X154959523Y-98924047D01*
X154959523Y-99114523D01*
X154997619Y-99190714D01*
X155035714Y-99228809D01*
X155111904Y-99266904D01*
X155340476Y-99266904D01*
X155416666Y-99228809D01*
X155454761Y-99190714D01*
X154616666Y-99190714D02*
X154578571Y-99228809D01*
X154616666Y-99266904D01*
X154654761Y-99228809D01*
X154616666Y-99190714D01*
X154616666Y-99266904D01*
X153854761Y-98466904D02*
X154235714Y-98466904D01*
X154273809Y-98847857D01*
X154235714Y-98809761D01*
X154159523Y-98771666D01*
X153969047Y-98771666D01*
X153892857Y-98809761D01*
X153854761Y-98847857D01*
X153816666Y-98924047D01*
X153816666Y-99114523D01*
X153854761Y-99190714D01*
X153892857Y-99228809D01*
X153969047Y-99266904D01*
X154159523Y-99266904D01*
X154235714Y-99228809D01*
X154273809Y-99190714D01*
X153511904Y-98466904D02*
X153511904Y-98619285D01*
X153207142Y-98466904D02*
X153207142Y-98619285D01*
X151797619Y-99266904D02*
X152064285Y-98885952D01*
X152254761Y-99266904D02*
X152254761Y-98466904D01*
X151950000Y-98466904D01*
X151873809Y-98505000D01*
X151835714Y-98543095D01*
X151797619Y-98619285D01*
X151797619Y-98733571D01*
X151835714Y-98809761D01*
X151873809Y-98847857D01*
X151950000Y-98885952D01*
X152254761Y-98885952D01*
X151150000Y-99228809D02*
X151226190Y-99266904D01*
X151378571Y-99266904D01*
X151454761Y-99228809D01*
X151492857Y-99152619D01*
X151492857Y-98847857D01*
X151454761Y-98771666D01*
X151378571Y-98733571D01*
X151226190Y-98733571D01*
X151150000Y-98771666D01*
X151111904Y-98847857D01*
X151111904Y-98924047D01*
X151492857Y-99000238D01*
X150883333Y-98733571D02*
X150578571Y-98733571D01*
X150769047Y-98466904D02*
X150769047Y-99152619D01*
X150730952Y-99228809D01*
X150654761Y-99266904D01*
X150578571Y-99266904D01*
X150311904Y-99266904D02*
X150311904Y-98733571D01*
X150311904Y-98885952D02*
X150273809Y-98809761D01*
X150235714Y-98771666D01*
X150159523Y-98733571D01*
X150083333Y-98733571D01*
X149702380Y-99266904D02*
X149778571Y-99228809D01*
X149816666Y-99190714D01*
X149854761Y-99114523D01*
X149854761Y-98885952D01*
X149816666Y-98809761D01*
X149778571Y-98771666D01*
X149702380Y-98733571D01*
X149588095Y-98733571D01*
X149511904Y-98771666D01*
X149473809Y-98809761D01*
X149435714Y-98885952D01*
X149435714Y-99114523D01*
X149473809Y-99190714D01*
X149511904Y-99228809D01*
X149588095Y-99266904D01*
X149702380Y-99266904D01*
X149092857Y-99266904D02*
X149092857Y-98466904D01*
X148788095Y-98466904D01*
X148711904Y-98505000D01*
X148673809Y-98543095D01*
X148635714Y-98619285D01*
X148635714Y-98733571D01*
X148673809Y-98809761D01*
X148711904Y-98847857D01*
X148788095Y-98885952D01*
X149092857Y-98885952D01*
X147950000Y-99266904D02*
X147950000Y-98847857D01*
X147988095Y-98771666D01*
X148064285Y-98733571D01*
X148216666Y-98733571D01*
X148292857Y-98771666D01*
X147950000Y-99228809D02*
X148026190Y-99266904D01*
X148216666Y-99266904D01*
X148292857Y-99228809D01*
X148330952Y-99152619D01*
X148330952Y-99076428D01*
X148292857Y-99000238D01*
X148216666Y-98962142D01*
X148026190Y-98962142D01*
X147950000Y-98924047D01*
X147569047Y-98733571D02*
X147569047Y-99266904D01*
X147569047Y-98809761D02*
X147530952Y-98771666D01*
X147454761Y-98733571D01*
X147340476Y-98733571D01*
X147264285Y-98771666D01*
X147226190Y-98847857D01*
X147226190Y-99266904D01*
X146540476Y-99228809D02*
X146616666Y-99266904D01*
X146769047Y-99266904D01*
X146845238Y-99228809D01*
X146883333Y-99152619D01*
X146883333Y-98847857D01*
X146845238Y-98771666D01*
X146769047Y-98733571D01*
X146616666Y-98733571D01*
X146540476Y-98771666D01*
X146502380Y-98847857D01*
X146502380Y-98924047D01*
X146883333Y-99000238D01*
X146045238Y-99266904D02*
X146121428Y-99228809D01*
X146159523Y-99152619D01*
X146159523Y-98466904D01*
X157188095Y-100147857D02*
X157454761Y-100147857D01*
X157454761Y-100566904D02*
X157454761Y-99766904D01*
X157073809Y-99766904D01*
X156426190Y-100566904D02*
X156426190Y-100147857D01*
X156464285Y-100071666D01*
X156540476Y-100033571D01*
X156692857Y-100033571D01*
X156769047Y-100071666D01*
X156426190Y-100528809D02*
X156502380Y-100566904D01*
X156692857Y-100566904D01*
X156769047Y-100528809D01*
X156807142Y-100452619D01*
X156807142Y-100376428D01*
X156769047Y-100300238D01*
X156692857Y-100262142D01*
X156502380Y-100262142D01*
X156426190Y-100224047D01*
X155702380Y-100528809D02*
X155778571Y-100566904D01*
X155930952Y-100566904D01*
X156007142Y-100528809D01*
X156045238Y-100490714D01*
X156083333Y-100414523D01*
X156083333Y-100185952D01*
X156045238Y-100109761D01*
X156007142Y-100071666D01*
X155930952Y-100033571D01*
X155778571Y-100033571D01*
X155702380Y-100071666D01*
X155054761Y-100528809D02*
X155130952Y-100566904D01*
X155283333Y-100566904D01*
X155359523Y-100528809D01*
X155397619Y-100452619D01*
X155397619Y-100147857D01*
X155359523Y-100071666D01*
X155283333Y-100033571D01*
X155130952Y-100033571D01*
X155054761Y-100071666D01*
X155016666Y-100147857D01*
X155016666Y-100224047D01*
X155397619Y-100300238D01*
X154673809Y-100033571D02*
X154673809Y-100833571D01*
X154673809Y-100071666D02*
X154597619Y-100033571D01*
X154445238Y-100033571D01*
X154369047Y-100071666D01*
X154330952Y-100109761D01*
X154292857Y-100185952D01*
X154292857Y-100414523D01*
X154330952Y-100490714D01*
X154369047Y-100528809D01*
X154445238Y-100566904D01*
X154597619Y-100566904D01*
X154673809Y-100528809D01*
X153835714Y-100566904D02*
X153911904Y-100528809D01*
X153950000Y-100452619D01*
X153950000Y-99766904D01*
X153188095Y-100566904D02*
X153188095Y-100147857D01*
X153226190Y-100071666D01*
X153302380Y-100033571D01*
X153454761Y-100033571D01*
X153530952Y-100071666D01*
X153188095Y-100528809D02*
X153264285Y-100566904D01*
X153454761Y-100566904D01*
X153530952Y-100528809D01*
X153569047Y-100452619D01*
X153569047Y-100376428D01*
X153530952Y-100300238D01*
X153454761Y-100262142D01*
X153264285Y-100262142D01*
X153188095Y-100224047D01*
X152921428Y-100033571D02*
X152616666Y-100033571D01*
X152807142Y-99766904D02*
X152807142Y-100452619D01*
X152769047Y-100528809D01*
X152692857Y-100566904D01*
X152616666Y-100566904D01*
X152045238Y-100528809D02*
X152121428Y-100566904D01*
X152273809Y-100566904D01*
X152350000Y-100528809D01*
X152388095Y-100452619D01*
X152388095Y-100147857D01*
X152350000Y-100071666D01*
X152273809Y-100033571D01*
X152121428Y-100033571D01*
X152045238Y-100071666D01*
X152007142Y-100147857D01*
X152007142Y-100224047D01*
X152388095Y-100300238D01*
X150788095Y-100147857D02*
X151054761Y-100147857D01*
X151054761Y-100566904D02*
X151054761Y-99766904D01*
X150673809Y-99766904D01*
X150369047Y-100566904D02*
X150369047Y-99766904D01*
X150064285Y-99766904D01*
X149988095Y-99805000D01*
X149950000Y-99843095D01*
X149911904Y-99919285D01*
X149911904Y-100033571D01*
X149950000Y-100109761D01*
X149988095Y-100147857D01*
X150064285Y-100185952D01*
X150369047Y-100185952D01*
X149607142Y-99843095D02*
X149569047Y-99805000D01*
X149492857Y-99766904D01*
X149302380Y-99766904D01*
X149226190Y-99805000D01*
X149188095Y-99843095D01*
X149150000Y-99919285D01*
X149150000Y-99995476D01*
X149188095Y-100109761D01*
X149645238Y-100566904D01*
X149150000Y-100566904D01*
X147969047Y-100871666D02*
X148007142Y-100833571D01*
X148083333Y-100719285D01*
X148121428Y-100643095D01*
X148159523Y-100528809D01*
X148197619Y-100338333D01*
X148197619Y-100185952D01*
X148159523Y-99995476D01*
X148121428Y-99881190D01*
X148083333Y-99805000D01*
X148007142Y-99690714D01*
X147969047Y-99652619D01*
X147664285Y-100566904D02*
X147664285Y-100033571D01*
X147664285Y-100185952D02*
X147626190Y-100109761D01*
X147588095Y-100071666D01*
X147511904Y-100033571D01*
X147435714Y-100033571D01*
X146864285Y-100528809D02*
X146940476Y-100566904D01*
X147092857Y-100566904D01*
X147169047Y-100528809D01*
X147207142Y-100452619D01*
X147207142Y-100147857D01*
X147169047Y-100071666D01*
X147092857Y-100033571D01*
X146940476Y-100033571D01*
X146864285Y-100071666D01*
X146826190Y-100147857D01*
X146826190Y-100224047D01*
X147207142Y-100300238D01*
X146559523Y-100033571D02*
X146369047Y-100566904D01*
X146178571Y-100033571D01*
X145873809Y-100490714D02*
X145835714Y-100528809D01*
X145873809Y-100566904D01*
X145911904Y-100528809D01*
X145873809Y-100490714D01*
X145873809Y-100566904D01*
X144921428Y-100338333D02*
X144540476Y-100338333D01*
X144997619Y-100566904D02*
X144730952Y-99766904D01*
X144464285Y-100566904D01*
X144273809Y-100871666D02*
X144235714Y-100833571D01*
X144159523Y-100719285D01*
X144121428Y-100643095D01*
X144083333Y-100528809D01*
X144045238Y-100338333D01*
X144045238Y-100185952D01*
X144083333Y-99995476D01*
X144121428Y-99881190D01*
X144159523Y-99805000D01*
X144235714Y-99690714D01*
X144273809Y-99652619D01*
X155073809Y-101333571D02*
X155073809Y-101981190D01*
X155111904Y-102057380D01*
X155150000Y-102095476D01*
X155226190Y-102133571D01*
X155340476Y-102133571D01*
X155416666Y-102095476D01*
X155073809Y-101828809D02*
X155150000Y-101866904D01*
X155302380Y-101866904D01*
X155378571Y-101828809D01*
X155416666Y-101790714D01*
X155454761Y-101714523D01*
X155454761Y-101485952D01*
X155416666Y-101409761D01*
X155378571Y-101371666D01*
X155302380Y-101333571D01*
X155150000Y-101333571D01*
X155073809Y-101371666D01*
X154692857Y-101866904D02*
X154692857Y-101333571D01*
X154692857Y-101066904D02*
X154730952Y-101105000D01*
X154692857Y-101143095D01*
X154654761Y-101105000D01*
X154692857Y-101066904D01*
X154692857Y-101143095D01*
X154426190Y-101333571D02*
X154121428Y-101333571D01*
X154311904Y-101066904D02*
X154311904Y-101752619D01*
X154273809Y-101828809D01*
X154197619Y-101866904D01*
X154121428Y-101866904D01*
X153854761Y-101866904D02*
X153854761Y-101066904D01*
X153511904Y-101866904D02*
X153511904Y-101447857D01*
X153550000Y-101371666D01*
X153626190Y-101333571D01*
X153740476Y-101333571D01*
X153816666Y-101371666D01*
X153854761Y-101409761D01*
X152788095Y-101333571D02*
X152788095Y-101866904D01*
X153130952Y-101333571D02*
X153130952Y-101752619D01*
X153092857Y-101828809D01*
X153016666Y-101866904D01*
X152902380Y-101866904D01*
X152826190Y-101828809D01*
X152788095Y-101790714D01*
X152407142Y-101866904D02*
X152407142Y-101066904D01*
X152407142Y-101371666D02*
X152330952Y-101333571D01*
X152178571Y-101333571D01*
X152102380Y-101371666D01*
X152064285Y-101409761D01*
X152026190Y-101485952D01*
X152026190Y-101714523D01*
X152064285Y-101790714D01*
X152102380Y-101828809D01*
X152178571Y-101866904D01*
X152330952Y-101866904D01*
X152407142Y-101828809D01*
X151683333Y-101790714D02*
X151645238Y-101828809D01*
X151683333Y-101866904D01*
X151721428Y-101828809D01*
X151683333Y-101790714D01*
X151683333Y-101866904D01*
X150959523Y-101828809D02*
X151035714Y-101866904D01*
X151188095Y-101866904D01*
X151264285Y-101828809D01*
X151302380Y-101790714D01*
X151340476Y-101714523D01*
X151340476Y-101485952D01*
X151302380Y-101409761D01*
X151264285Y-101371666D01*
X151188095Y-101333571D01*
X151035714Y-101333571D01*
X150959523Y-101371666D01*
X150502380Y-101866904D02*
X150578571Y-101828809D01*
X150616666Y-101790714D01*
X150654761Y-101714523D01*
X150654761Y-101485952D01*
X150616666Y-101409761D01*
X150578571Y-101371666D01*
X150502380Y-101333571D01*
X150388095Y-101333571D01*
X150311904Y-101371666D01*
X150273809Y-101409761D01*
X150235714Y-101485952D01*
X150235714Y-101714523D01*
X150273809Y-101790714D01*
X150311904Y-101828809D01*
X150388095Y-101866904D01*
X150502380Y-101866904D01*
X149892857Y-101866904D02*
X149892857Y-101333571D01*
X149892857Y-101409761D02*
X149854761Y-101371666D01*
X149778571Y-101333571D01*
X149664285Y-101333571D01*
X149588095Y-101371666D01*
X149550000Y-101447857D01*
X149550000Y-101866904D01*
X149550000Y-101447857D02*
X149511904Y-101371666D01*
X149435714Y-101333571D01*
X149321428Y-101333571D01*
X149245238Y-101371666D01*
X149207142Y-101447857D01*
X149207142Y-101866904D01*
X148254761Y-101028809D02*
X148940476Y-102057380D01*
X148102380Y-101333571D02*
X147797619Y-101333571D01*
X147988095Y-101066904D02*
X147988095Y-101752619D01*
X147950000Y-101828809D01*
X147873809Y-101866904D01*
X147797619Y-101866904D01*
X147226190Y-101828809D02*
X147302380Y-101866904D01*
X147454761Y-101866904D01*
X147530952Y-101828809D01*
X147569047Y-101752619D01*
X147569047Y-101447857D01*
X147530952Y-101371666D01*
X147454761Y-101333571D01*
X147302380Y-101333571D01*
X147226190Y-101371666D01*
X147188095Y-101447857D01*
X147188095Y-101524047D01*
X147569047Y-101600238D01*
X146845238Y-101866904D02*
X146845238Y-101066904D01*
X146845238Y-101371666D02*
X146769047Y-101333571D01*
X146616666Y-101333571D01*
X146540476Y-101371666D01*
X146502380Y-101409761D01*
X146464285Y-101485952D01*
X146464285Y-101714523D01*
X146502380Y-101790714D01*
X146540476Y-101828809D01*
X146616666Y-101866904D01*
X146769047Y-101866904D01*
X146845238Y-101828809D01*
X146007142Y-101866904D02*
X146083333Y-101828809D01*
X146121428Y-101752619D01*
X146121428Y-101066904D01*
M02*
