G04 #@! TF.GenerationSoftware,KiCad,Pcbnew,(5.1.8)-1*
G04 #@! TF.CreationDate,2022-11-12T23:31:27+01:00*
G04 #@! TF.ProjectId,RetroPanel FP2,52657472-6f50-4616-9e65-6c204650322e,rev?*
G04 #@! TF.SameCoordinates,Original*
G04 #@! TF.FileFunction,Copper,L2,Bot*
G04 #@! TF.FilePolarity,Positive*
%FSLAX46Y46*%
G04 Gerber Fmt 4.6, Leading zero omitted, Abs format (unit mm)*
G04 Created by KiCad (PCBNEW (5.1.8)-1) date 2022-11-12 23:31:27*
%MOMM*%
%LPD*%
G01*
G04 APERTURE LIST*
G04 #@! TA.AperFunction,ComponentPad*
%ADD10C,3.500000*%
G04 #@! TD*
G04 #@! TA.AperFunction,SMDPad,CuDef*
%ADD11R,4.400000X3.000000*%
G04 #@! TD*
G04 #@! TA.AperFunction,Conductor*
%ADD12C,0.254000*%
G04 #@! TD*
G04 #@! TA.AperFunction,Conductor*
%ADD13C,0.100000*%
G04 #@! TD*
G04 APERTURE END LIST*
D10*
X108687500Y-82575000D03*
X108687500Y-96725000D03*
X192812500Y-96725000D03*
X192812500Y-82575000D03*
D11*
X102934500Y-81648500D03*
X102934500Y-98476000D03*
X198565500Y-81648500D03*
X198565500Y-98476000D03*
X102921000Y-102794000D03*
X198565500Y-102794000D03*
D12*
X195739688Y-80024018D02*
X195727428Y-80148500D01*
X195730500Y-81362750D01*
X195889250Y-81521500D01*
X198438500Y-81521500D01*
X198438500Y-81501500D01*
X198692500Y-81501500D01*
X198692500Y-81521500D01*
X198712500Y-81521500D01*
X198712500Y-81775500D01*
X198692500Y-81775500D01*
X198692500Y-83624750D01*
X198851250Y-83783500D01*
X200765500Y-83786572D01*
X200840000Y-83779235D01*
X200840001Y-96345265D01*
X200765500Y-96337928D01*
X198851250Y-96341000D01*
X198692500Y-96499750D01*
X198692500Y-98349000D01*
X198712500Y-98349000D01*
X198712500Y-98603000D01*
X198692500Y-98603000D01*
X198692500Y-100452250D01*
X198851250Y-100611000D01*
X200765500Y-100614072D01*
X200840001Y-100606735D01*
X200840001Y-100663265D01*
X200765500Y-100655928D01*
X198851250Y-100659000D01*
X198692500Y-100817750D01*
X198692500Y-102667000D01*
X198712500Y-102667000D01*
X198712500Y-102921000D01*
X198692500Y-102921000D01*
X198692500Y-102941000D01*
X198438500Y-102941000D01*
X198438500Y-102921000D01*
X195889250Y-102921000D01*
X195730500Y-103079750D01*
X195727428Y-104294000D01*
X195739688Y-104418482D01*
X195775998Y-104538180D01*
X195830423Y-104640000D01*
X105656077Y-104640000D01*
X105710502Y-104538180D01*
X105746812Y-104418482D01*
X105759072Y-104294000D01*
X105756000Y-103079750D01*
X105597250Y-102921000D01*
X103048000Y-102921000D01*
X103048000Y-102941000D01*
X102794000Y-102941000D01*
X102794000Y-102921000D01*
X102774000Y-102921000D01*
X102774000Y-102667000D01*
X102794000Y-102667000D01*
X102794000Y-100817750D01*
X103048000Y-100817750D01*
X103048000Y-102667000D01*
X105597250Y-102667000D01*
X105756000Y-102508250D01*
X105759072Y-101294000D01*
X195727428Y-101294000D01*
X195730500Y-102508250D01*
X195889250Y-102667000D01*
X198438500Y-102667000D01*
X198438500Y-100817750D01*
X198279750Y-100659000D01*
X196365500Y-100655928D01*
X196241018Y-100668188D01*
X196121320Y-100704498D01*
X196011006Y-100763463D01*
X195914315Y-100842815D01*
X195834963Y-100939506D01*
X195775998Y-101049820D01*
X195739688Y-101169518D01*
X195727428Y-101294000D01*
X105759072Y-101294000D01*
X105746812Y-101169518D01*
X105710502Y-101049820D01*
X105651537Y-100939506D01*
X105572185Y-100842815D01*
X105475494Y-100763463D01*
X105365180Y-100704498D01*
X105245482Y-100668188D01*
X105121000Y-100655928D01*
X103206750Y-100659000D01*
X103048000Y-100817750D01*
X102794000Y-100817750D01*
X102635250Y-100659000D01*
X100721000Y-100655928D01*
X100660000Y-100661936D01*
X100660000Y-100606735D01*
X100734500Y-100614072D01*
X102648750Y-100611000D01*
X102807500Y-100452250D01*
X102807500Y-98603000D01*
X103061500Y-98603000D01*
X103061500Y-100452250D01*
X103220250Y-100611000D01*
X105134500Y-100614072D01*
X105258982Y-100601812D01*
X105378680Y-100565502D01*
X105488994Y-100506537D01*
X105585685Y-100427185D01*
X105665037Y-100330494D01*
X105724002Y-100220180D01*
X105760312Y-100100482D01*
X105772572Y-99976000D01*
X195727428Y-99976000D01*
X195739688Y-100100482D01*
X195775998Y-100220180D01*
X195834963Y-100330494D01*
X195914315Y-100427185D01*
X196011006Y-100506537D01*
X196121320Y-100565502D01*
X196241018Y-100601812D01*
X196365500Y-100614072D01*
X198279750Y-100611000D01*
X198438500Y-100452250D01*
X198438500Y-98603000D01*
X195889250Y-98603000D01*
X195730500Y-98761750D01*
X195727428Y-99976000D01*
X105772572Y-99976000D01*
X105769500Y-98761750D01*
X105610750Y-98603000D01*
X103061500Y-98603000D01*
X102807500Y-98603000D01*
X102787500Y-98603000D01*
X102787500Y-98394609D01*
X107197497Y-98394609D01*
X107383573Y-98735766D01*
X107800909Y-98951513D01*
X108252315Y-99081696D01*
X108720446Y-99121313D01*
X109187311Y-99068842D01*
X109634968Y-98926297D01*
X109991427Y-98735766D01*
X110177503Y-98394609D01*
X191322497Y-98394609D01*
X191508573Y-98735766D01*
X191925909Y-98951513D01*
X192377315Y-99081696D01*
X192845446Y-99121313D01*
X193312311Y-99068842D01*
X193759968Y-98926297D01*
X194116427Y-98735766D01*
X194302503Y-98394609D01*
X192812500Y-96904605D01*
X191322497Y-98394609D01*
X110177503Y-98394609D01*
X108687500Y-96904605D01*
X107197497Y-98394609D01*
X102787500Y-98394609D01*
X102787500Y-98349000D01*
X102807500Y-98349000D01*
X102807500Y-96499750D01*
X103061500Y-96499750D01*
X103061500Y-98349000D01*
X105610750Y-98349000D01*
X105769500Y-98190250D01*
X105772572Y-96976000D01*
X105760312Y-96851518D01*
X105731928Y-96757946D01*
X106291187Y-96757946D01*
X106343658Y-97224811D01*
X106486203Y-97672468D01*
X106676734Y-98028927D01*
X107017891Y-98215003D01*
X108507895Y-96725000D01*
X108867105Y-96725000D01*
X110357109Y-98215003D01*
X110698266Y-98028927D01*
X110914013Y-97611591D01*
X111044196Y-97160185D01*
X111083813Y-96692054D01*
X111031342Y-96225189D01*
X110888797Y-95777532D01*
X110698266Y-95421073D01*
X110357109Y-95234997D01*
X108867105Y-96725000D01*
X108507895Y-96725000D01*
X107017891Y-95234997D01*
X106676734Y-95421073D01*
X106460987Y-95838409D01*
X106330804Y-96289815D01*
X106291187Y-96757946D01*
X105731928Y-96757946D01*
X105724002Y-96731820D01*
X105665037Y-96621506D01*
X105585685Y-96524815D01*
X105488994Y-96445463D01*
X105378680Y-96386498D01*
X105258982Y-96350188D01*
X105134500Y-96337928D01*
X103220250Y-96341000D01*
X103061500Y-96499750D01*
X102807500Y-96499750D01*
X102648750Y-96341000D01*
X100734500Y-96337928D01*
X100660000Y-96345265D01*
X100660000Y-95055391D01*
X107197497Y-95055391D01*
X108687500Y-96545395D01*
X110177503Y-95055391D01*
X109991427Y-94714234D01*
X109574091Y-94498487D01*
X109122685Y-94368304D01*
X108654554Y-94328687D01*
X108187689Y-94381158D01*
X107740032Y-94523703D01*
X107383573Y-94714234D01*
X107197497Y-95055391D01*
X100660000Y-95055391D01*
X100660000Y-84244609D01*
X107197497Y-84244609D01*
X107383573Y-84585766D01*
X107800909Y-84801513D01*
X108252315Y-84931696D01*
X108720446Y-84971313D01*
X109187311Y-84918842D01*
X109634968Y-84776297D01*
X109991427Y-84585766D01*
X110177503Y-84244609D01*
X108687500Y-82754605D01*
X107197497Y-84244609D01*
X100660000Y-84244609D01*
X100660000Y-83779235D01*
X100734500Y-83786572D01*
X102648750Y-83783500D01*
X102807500Y-83624750D01*
X102807500Y-81775500D01*
X103061500Y-81775500D01*
X103061500Y-83624750D01*
X103220250Y-83783500D01*
X105134500Y-83786572D01*
X105258982Y-83774312D01*
X105378680Y-83738002D01*
X105488994Y-83679037D01*
X105585685Y-83599685D01*
X105665037Y-83502994D01*
X105724002Y-83392680D01*
X105760312Y-83272982D01*
X105772572Y-83148500D01*
X105771205Y-82607946D01*
X106291187Y-82607946D01*
X106343658Y-83074811D01*
X106486203Y-83522468D01*
X106676734Y-83878927D01*
X107017891Y-84065003D01*
X108507895Y-82575000D01*
X108867105Y-82575000D01*
X110357109Y-84065003D01*
X110698266Y-83878927D01*
X110914013Y-83461591D01*
X111044196Y-83010185D01*
X111078730Y-82602116D01*
X114352423Y-82602116D01*
X114352423Y-83107884D01*
X114451094Y-83603934D01*
X114644643Y-84071204D01*
X114925633Y-84491735D01*
X115283265Y-84849367D01*
X115703796Y-85130357D01*
X116171066Y-85323906D01*
X116667116Y-85422577D01*
X117172884Y-85422577D01*
X117668934Y-85323906D01*
X118136204Y-85130357D01*
X118556735Y-84849367D01*
X118914367Y-84491735D01*
X119195357Y-84071204D01*
X119388906Y-83603934D01*
X119487577Y-83107884D01*
X119487577Y-82602116D01*
X119388906Y-82106066D01*
X119353257Y-82020000D01*
X134850807Y-82020000D01*
X134854001Y-82052429D01*
X134854000Y-96157581D01*
X134850807Y-96190000D01*
X134863550Y-96319383D01*
X134901290Y-96443793D01*
X134962575Y-96558450D01*
X135014324Y-96621506D01*
X135045052Y-96658948D01*
X135145550Y-96741425D01*
X135260207Y-96802710D01*
X135384617Y-96840450D01*
X135514000Y-96853193D01*
X135546419Y-96850000D01*
X165953581Y-96850000D01*
X165986000Y-96853193D01*
X166018419Y-96850000D01*
X166115383Y-96840450D01*
X166239793Y-96802710D01*
X166323541Y-96757946D01*
X190416187Y-96757946D01*
X190468658Y-97224811D01*
X190611203Y-97672468D01*
X190801734Y-98028927D01*
X191142891Y-98215003D01*
X192632895Y-96725000D01*
X192992105Y-96725000D01*
X194482109Y-98215003D01*
X194823266Y-98028927D01*
X195039013Y-97611591D01*
X195169196Y-97160185D01*
X195184783Y-96976000D01*
X195727428Y-96976000D01*
X195730500Y-98190250D01*
X195889250Y-98349000D01*
X198438500Y-98349000D01*
X198438500Y-96499750D01*
X198279750Y-96341000D01*
X196365500Y-96337928D01*
X196241018Y-96350188D01*
X196121320Y-96386498D01*
X196011006Y-96445463D01*
X195914315Y-96524815D01*
X195834963Y-96621506D01*
X195775998Y-96731820D01*
X195739688Y-96851518D01*
X195727428Y-96976000D01*
X195184783Y-96976000D01*
X195208813Y-96692054D01*
X195156342Y-96225189D01*
X195013797Y-95777532D01*
X194823266Y-95421073D01*
X194482109Y-95234997D01*
X192992105Y-96725000D01*
X192632895Y-96725000D01*
X191142891Y-95234997D01*
X190801734Y-95421073D01*
X190585987Y-95838409D01*
X190455804Y-96289815D01*
X190416187Y-96757946D01*
X166323541Y-96757946D01*
X166354450Y-96741425D01*
X166454948Y-96658948D01*
X166537425Y-96558450D01*
X166598710Y-96443793D01*
X166636450Y-96319383D01*
X166649193Y-96190000D01*
X166646000Y-96157581D01*
X166646000Y-95055391D01*
X191322497Y-95055391D01*
X192812500Y-96545395D01*
X194302503Y-95055391D01*
X194116427Y-94714234D01*
X193699091Y-94498487D01*
X193247685Y-94368304D01*
X192779554Y-94328687D01*
X192312689Y-94381158D01*
X191865032Y-94523703D01*
X191508573Y-94714234D01*
X191322497Y-95055391D01*
X166646000Y-95055391D01*
X166646000Y-82602116D01*
X181885423Y-82602116D01*
X181885423Y-83107884D01*
X181984094Y-83603934D01*
X182177643Y-84071204D01*
X182458633Y-84491735D01*
X182816265Y-84849367D01*
X183236796Y-85130357D01*
X183704066Y-85323906D01*
X184200116Y-85422577D01*
X184705884Y-85422577D01*
X185201934Y-85323906D01*
X185669204Y-85130357D01*
X186089735Y-84849367D01*
X186447367Y-84491735D01*
X186612491Y-84244609D01*
X191322497Y-84244609D01*
X191508573Y-84585766D01*
X191925909Y-84801513D01*
X192377315Y-84931696D01*
X192845446Y-84971313D01*
X193312311Y-84918842D01*
X193759968Y-84776297D01*
X194116427Y-84585766D01*
X194302503Y-84244609D01*
X192812500Y-82754605D01*
X191322497Y-84244609D01*
X186612491Y-84244609D01*
X186728357Y-84071204D01*
X186921906Y-83603934D01*
X187020577Y-83107884D01*
X187020577Y-82607946D01*
X190416187Y-82607946D01*
X190468658Y-83074811D01*
X190611203Y-83522468D01*
X190801734Y-83878927D01*
X191142891Y-84065003D01*
X192632895Y-82575000D01*
X192992105Y-82575000D01*
X194482109Y-84065003D01*
X194823266Y-83878927D01*
X195039013Y-83461591D01*
X195129306Y-83148500D01*
X195727428Y-83148500D01*
X195739688Y-83272982D01*
X195775998Y-83392680D01*
X195834963Y-83502994D01*
X195914315Y-83599685D01*
X196011006Y-83679037D01*
X196121320Y-83738002D01*
X196241018Y-83774312D01*
X196365500Y-83786572D01*
X198279750Y-83783500D01*
X198438500Y-83624750D01*
X198438500Y-81775500D01*
X195889250Y-81775500D01*
X195730500Y-81934250D01*
X195727428Y-83148500D01*
X195129306Y-83148500D01*
X195169196Y-83010185D01*
X195208813Y-82542054D01*
X195156342Y-82075189D01*
X195013797Y-81627532D01*
X194823266Y-81271073D01*
X194482109Y-81084997D01*
X192992105Y-82575000D01*
X192632895Y-82575000D01*
X191142891Y-81084997D01*
X190801734Y-81271073D01*
X190585987Y-81688409D01*
X190455804Y-82139815D01*
X190416187Y-82607946D01*
X187020577Y-82607946D01*
X187020577Y-82602116D01*
X186921906Y-82106066D01*
X186728357Y-81638796D01*
X186447367Y-81218265D01*
X186134493Y-80905391D01*
X191322497Y-80905391D01*
X192812500Y-82395395D01*
X194302503Y-80905391D01*
X194116427Y-80564234D01*
X193699091Y-80348487D01*
X193247685Y-80218304D01*
X192779554Y-80178687D01*
X192312689Y-80231158D01*
X191865032Y-80373703D01*
X191508573Y-80564234D01*
X191322497Y-80905391D01*
X186134493Y-80905391D01*
X186089735Y-80860633D01*
X185669204Y-80579643D01*
X185201934Y-80386094D01*
X184705884Y-80287423D01*
X184200116Y-80287423D01*
X183704066Y-80386094D01*
X183236796Y-80579643D01*
X182816265Y-80860633D01*
X182458633Y-81218265D01*
X182177643Y-81638796D01*
X181984094Y-82106066D01*
X181885423Y-82602116D01*
X166646000Y-82602116D01*
X166646000Y-82052419D01*
X166649193Y-82020000D01*
X166636450Y-81890617D01*
X166598710Y-81766207D01*
X166537425Y-81651550D01*
X166454948Y-81551052D01*
X166354450Y-81468575D01*
X166239793Y-81407290D01*
X166115383Y-81369550D01*
X166018419Y-81360000D01*
X165986000Y-81356807D01*
X165953581Y-81360000D01*
X135546419Y-81360000D01*
X135514000Y-81356807D01*
X135481581Y-81360000D01*
X135384617Y-81369550D01*
X135260207Y-81407290D01*
X135145550Y-81468575D01*
X135045052Y-81551052D01*
X134962575Y-81651550D01*
X134901290Y-81766207D01*
X134863550Y-81890617D01*
X134850807Y-82020000D01*
X119353257Y-82020000D01*
X119195357Y-81638796D01*
X118914367Y-81218265D01*
X118556735Y-80860633D01*
X118136204Y-80579643D01*
X117668934Y-80386094D01*
X117172884Y-80287423D01*
X116667116Y-80287423D01*
X116171066Y-80386094D01*
X115703796Y-80579643D01*
X115283265Y-80860633D01*
X114925633Y-81218265D01*
X114644643Y-81638796D01*
X114451094Y-82106066D01*
X114352423Y-82602116D01*
X111078730Y-82602116D01*
X111083813Y-82542054D01*
X111031342Y-82075189D01*
X110888797Y-81627532D01*
X110698266Y-81271073D01*
X110357109Y-81084997D01*
X108867105Y-82575000D01*
X108507895Y-82575000D01*
X107017891Y-81084997D01*
X106676734Y-81271073D01*
X106460987Y-81688409D01*
X106330804Y-82139815D01*
X106291187Y-82607946D01*
X105771205Y-82607946D01*
X105769500Y-81934250D01*
X105610750Y-81775500D01*
X103061500Y-81775500D01*
X102807500Y-81775500D01*
X102787500Y-81775500D01*
X102787500Y-81521500D01*
X102807500Y-81521500D01*
X102807500Y-81501500D01*
X103061500Y-81501500D01*
X103061500Y-81521500D01*
X105610750Y-81521500D01*
X105769500Y-81362750D01*
X105770657Y-80905391D01*
X107197497Y-80905391D01*
X108687500Y-82395395D01*
X110177503Y-80905391D01*
X109991427Y-80564234D01*
X109574091Y-80348487D01*
X109122685Y-80218304D01*
X108654554Y-80178687D01*
X108187689Y-80231158D01*
X107740032Y-80373703D01*
X107383573Y-80564234D01*
X107197497Y-80905391D01*
X105770657Y-80905391D01*
X105772572Y-80148500D01*
X105760312Y-80024018D01*
X105740892Y-79960000D01*
X195759108Y-79960000D01*
X195739688Y-80024018D01*
G04 #@! TA.AperFunction,Conductor*
D13*
G36*
X195739688Y-80024018D02*
G01*
X195727428Y-80148500D01*
X195730500Y-81362750D01*
X195889250Y-81521500D01*
X198438500Y-81521500D01*
X198438500Y-81501500D01*
X198692500Y-81501500D01*
X198692500Y-81521500D01*
X198712500Y-81521500D01*
X198712500Y-81775500D01*
X198692500Y-81775500D01*
X198692500Y-83624750D01*
X198851250Y-83783500D01*
X200765500Y-83786572D01*
X200840000Y-83779235D01*
X200840001Y-96345265D01*
X200765500Y-96337928D01*
X198851250Y-96341000D01*
X198692500Y-96499750D01*
X198692500Y-98349000D01*
X198712500Y-98349000D01*
X198712500Y-98603000D01*
X198692500Y-98603000D01*
X198692500Y-100452250D01*
X198851250Y-100611000D01*
X200765500Y-100614072D01*
X200840001Y-100606735D01*
X200840001Y-100663265D01*
X200765500Y-100655928D01*
X198851250Y-100659000D01*
X198692500Y-100817750D01*
X198692500Y-102667000D01*
X198712500Y-102667000D01*
X198712500Y-102921000D01*
X198692500Y-102921000D01*
X198692500Y-102941000D01*
X198438500Y-102941000D01*
X198438500Y-102921000D01*
X195889250Y-102921000D01*
X195730500Y-103079750D01*
X195727428Y-104294000D01*
X195739688Y-104418482D01*
X195775998Y-104538180D01*
X195830423Y-104640000D01*
X105656077Y-104640000D01*
X105710502Y-104538180D01*
X105746812Y-104418482D01*
X105759072Y-104294000D01*
X105756000Y-103079750D01*
X105597250Y-102921000D01*
X103048000Y-102921000D01*
X103048000Y-102941000D01*
X102794000Y-102941000D01*
X102794000Y-102921000D01*
X102774000Y-102921000D01*
X102774000Y-102667000D01*
X102794000Y-102667000D01*
X102794000Y-100817750D01*
X103048000Y-100817750D01*
X103048000Y-102667000D01*
X105597250Y-102667000D01*
X105756000Y-102508250D01*
X105759072Y-101294000D01*
X195727428Y-101294000D01*
X195730500Y-102508250D01*
X195889250Y-102667000D01*
X198438500Y-102667000D01*
X198438500Y-100817750D01*
X198279750Y-100659000D01*
X196365500Y-100655928D01*
X196241018Y-100668188D01*
X196121320Y-100704498D01*
X196011006Y-100763463D01*
X195914315Y-100842815D01*
X195834963Y-100939506D01*
X195775998Y-101049820D01*
X195739688Y-101169518D01*
X195727428Y-101294000D01*
X105759072Y-101294000D01*
X105746812Y-101169518D01*
X105710502Y-101049820D01*
X105651537Y-100939506D01*
X105572185Y-100842815D01*
X105475494Y-100763463D01*
X105365180Y-100704498D01*
X105245482Y-100668188D01*
X105121000Y-100655928D01*
X103206750Y-100659000D01*
X103048000Y-100817750D01*
X102794000Y-100817750D01*
X102635250Y-100659000D01*
X100721000Y-100655928D01*
X100660000Y-100661936D01*
X100660000Y-100606735D01*
X100734500Y-100614072D01*
X102648750Y-100611000D01*
X102807500Y-100452250D01*
X102807500Y-98603000D01*
X103061500Y-98603000D01*
X103061500Y-100452250D01*
X103220250Y-100611000D01*
X105134500Y-100614072D01*
X105258982Y-100601812D01*
X105378680Y-100565502D01*
X105488994Y-100506537D01*
X105585685Y-100427185D01*
X105665037Y-100330494D01*
X105724002Y-100220180D01*
X105760312Y-100100482D01*
X105772572Y-99976000D01*
X195727428Y-99976000D01*
X195739688Y-100100482D01*
X195775998Y-100220180D01*
X195834963Y-100330494D01*
X195914315Y-100427185D01*
X196011006Y-100506537D01*
X196121320Y-100565502D01*
X196241018Y-100601812D01*
X196365500Y-100614072D01*
X198279750Y-100611000D01*
X198438500Y-100452250D01*
X198438500Y-98603000D01*
X195889250Y-98603000D01*
X195730500Y-98761750D01*
X195727428Y-99976000D01*
X105772572Y-99976000D01*
X105769500Y-98761750D01*
X105610750Y-98603000D01*
X103061500Y-98603000D01*
X102807500Y-98603000D01*
X102787500Y-98603000D01*
X102787500Y-98394609D01*
X107197497Y-98394609D01*
X107383573Y-98735766D01*
X107800909Y-98951513D01*
X108252315Y-99081696D01*
X108720446Y-99121313D01*
X109187311Y-99068842D01*
X109634968Y-98926297D01*
X109991427Y-98735766D01*
X110177503Y-98394609D01*
X191322497Y-98394609D01*
X191508573Y-98735766D01*
X191925909Y-98951513D01*
X192377315Y-99081696D01*
X192845446Y-99121313D01*
X193312311Y-99068842D01*
X193759968Y-98926297D01*
X194116427Y-98735766D01*
X194302503Y-98394609D01*
X192812500Y-96904605D01*
X191322497Y-98394609D01*
X110177503Y-98394609D01*
X108687500Y-96904605D01*
X107197497Y-98394609D01*
X102787500Y-98394609D01*
X102787500Y-98349000D01*
X102807500Y-98349000D01*
X102807500Y-96499750D01*
X103061500Y-96499750D01*
X103061500Y-98349000D01*
X105610750Y-98349000D01*
X105769500Y-98190250D01*
X105772572Y-96976000D01*
X105760312Y-96851518D01*
X105731928Y-96757946D01*
X106291187Y-96757946D01*
X106343658Y-97224811D01*
X106486203Y-97672468D01*
X106676734Y-98028927D01*
X107017891Y-98215003D01*
X108507895Y-96725000D01*
X108867105Y-96725000D01*
X110357109Y-98215003D01*
X110698266Y-98028927D01*
X110914013Y-97611591D01*
X111044196Y-97160185D01*
X111083813Y-96692054D01*
X111031342Y-96225189D01*
X110888797Y-95777532D01*
X110698266Y-95421073D01*
X110357109Y-95234997D01*
X108867105Y-96725000D01*
X108507895Y-96725000D01*
X107017891Y-95234997D01*
X106676734Y-95421073D01*
X106460987Y-95838409D01*
X106330804Y-96289815D01*
X106291187Y-96757946D01*
X105731928Y-96757946D01*
X105724002Y-96731820D01*
X105665037Y-96621506D01*
X105585685Y-96524815D01*
X105488994Y-96445463D01*
X105378680Y-96386498D01*
X105258982Y-96350188D01*
X105134500Y-96337928D01*
X103220250Y-96341000D01*
X103061500Y-96499750D01*
X102807500Y-96499750D01*
X102648750Y-96341000D01*
X100734500Y-96337928D01*
X100660000Y-96345265D01*
X100660000Y-95055391D01*
X107197497Y-95055391D01*
X108687500Y-96545395D01*
X110177503Y-95055391D01*
X109991427Y-94714234D01*
X109574091Y-94498487D01*
X109122685Y-94368304D01*
X108654554Y-94328687D01*
X108187689Y-94381158D01*
X107740032Y-94523703D01*
X107383573Y-94714234D01*
X107197497Y-95055391D01*
X100660000Y-95055391D01*
X100660000Y-84244609D01*
X107197497Y-84244609D01*
X107383573Y-84585766D01*
X107800909Y-84801513D01*
X108252315Y-84931696D01*
X108720446Y-84971313D01*
X109187311Y-84918842D01*
X109634968Y-84776297D01*
X109991427Y-84585766D01*
X110177503Y-84244609D01*
X108687500Y-82754605D01*
X107197497Y-84244609D01*
X100660000Y-84244609D01*
X100660000Y-83779235D01*
X100734500Y-83786572D01*
X102648750Y-83783500D01*
X102807500Y-83624750D01*
X102807500Y-81775500D01*
X103061500Y-81775500D01*
X103061500Y-83624750D01*
X103220250Y-83783500D01*
X105134500Y-83786572D01*
X105258982Y-83774312D01*
X105378680Y-83738002D01*
X105488994Y-83679037D01*
X105585685Y-83599685D01*
X105665037Y-83502994D01*
X105724002Y-83392680D01*
X105760312Y-83272982D01*
X105772572Y-83148500D01*
X105771205Y-82607946D01*
X106291187Y-82607946D01*
X106343658Y-83074811D01*
X106486203Y-83522468D01*
X106676734Y-83878927D01*
X107017891Y-84065003D01*
X108507895Y-82575000D01*
X108867105Y-82575000D01*
X110357109Y-84065003D01*
X110698266Y-83878927D01*
X110914013Y-83461591D01*
X111044196Y-83010185D01*
X111078730Y-82602116D01*
X114352423Y-82602116D01*
X114352423Y-83107884D01*
X114451094Y-83603934D01*
X114644643Y-84071204D01*
X114925633Y-84491735D01*
X115283265Y-84849367D01*
X115703796Y-85130357D01*
X116171066Y-85323906D01*
X116667116Y-85422577D01*
X117172884Y-85422577D01*
X117668934Y-85323906D01*
X118136204Y-85130357D01*
X118556735Y-84849367D01*
X118914367Y-84491735D01*
X119195357Y-84071204D01*
X119388906Y-83603934D01*
X119487577Y-83107884D01*
X119487577Y-82602116D01*
X119388906Y-82106066D01*
X119353257Y-82020000D01*
X134850807Y-82020000D01*
X134854001Y-82052429D01*
X134854000Y-96157581D01*
X134850807Y-96190000D01*
X134863550Y-96319383D01*
X134901290Y-96443793D01*
X134962575Y-96558450D01*
X135014324Y-96621506D01*
X135045052Y-96658948D01*
X135145550Y-96741425D01*
X135260207Y-96802710D01*
X135384617Y-96840450D01*
X135514000Y-96853193D01*
X135546419Y-96850000D01*
X165953581Y-96850000D01*
X165986000Y-96853193D01*
X166018419Y-96850000D01*
X166115383Y-96840450D01*
X166239793Y-96802710D01*
X166323541Y-96757946D01*
X190416187Y-96757946D01*
X190468658Y-97224811D01*
X190611203Y-97672468D01*
X190801734Y-98028927D01*
X191142891Y-98215003D01*
X192632895Y-96725000D01*
X192992105Y-96725000D01*
X194482109Y-98215003D01*
X194823266Y-98028927D01*
X195039013Y-97611591D01*
X195169196Y-97160185D01*
X195184783Y-96976000D01*
X195727428Y-96976000D01*
X195730500Y-98190250D01*
X195889250Y-98349000D01*
X198438500Y-98349000D01*
X198438500Y-96499750D01*
X198279750Y-96341000D01*
X196365500Y-96337928D01*
X196241018Y-96350188D01*
X196121320Y-96386498D01*
X196011006Y-96445463D01*
X195914315Y-96524815D01*
X195834963Y-96621506D01*
X195775998Y-96731820D01*
X195739688Y-96851518D01*
X195727428Y-96976000D01*
X195184783Y-96976000D01*
X195208813Y-96692054D01*
X195156342Y-96225189D01*
X195013797Y-95777532D01*
X194823266Y-95421073D01*
X194482109Y-95234997D01*
X192992105Y-96725000D01*
X192632895Y-96725000D01*
X191142891Y-95234997D01*
X190801734Y-95421073D01*
X190585987Y-95838409D01*
X190455804Y-96289815D01*
X190416187Y-96757946D01*
X166323541Y-96757946D01*
X166354450Y-96741425D01*
X166454948Y-96658948D01*
X166537425Y-96558450D01*
X166598710Y-96443793D01*
X166636450Y-96319383D01*
X166649193Y-96190000D01*
X166646000Y-96157581D01*
X166646000Y-95055391D01*
X191322497Y-95055391D01*
X192812500Y-96545395D01*
X194302503Y-95055391D01*
X194116427Y-94714234D01*
X193699091Y-94498487D01*
X193247685Y-94368304D01*
X192779554Y-94328687D01*
X192312689Y-94381158D01*
X191865032Y-94523703D01*
X191508573Y-94714234D01*
X191322497Y-95055391D01*
X166646000Y-95055391D01*
X166646000Y-82602116D01*
X181885423Y-82602116D01*
X181885423Y-83107884D01*
X181984094Y-83603934D01*
X182177643Y-84071204D01*
X182458633Y-84491735D01*
X182816265Y-84849367D01*
X183236796Y-85130357D01*
X183704066Y-85323906D01*
X184200116Y-85422577D01*
X184705884Y-85422577D01*
X185201934Y-85323906D01*
X185669204Y-85130357D01*
X186089735Y-84849367D01*
X186447367Y-84491735D01*
X186612491Y-84244609D01*
X191322497Y-84244609D01*
X191508573Y-84585766D01*
X191925909Y-84801513D01*
X192377315Y-84931696D01*
X192845446Y-84971313D01*
X193312311Y-84918842D01*
X193759968Y-84776297D01*
X194116427Y-84585766D01*
X194302503Y-84244609D01*
X192812500Y-82754605D01*
X191322497Y-84244609D01*
X186612491Y-84244609D01*
X186728357Y-84071204D01*
X186921906Y-83603934D01*
X187020577Y-83107884D01*
X187020577Y-82607946D01*
X190416187Y-82607946D01*
X190468658Y-83074811D01*
X190611203Y-83522468D01*
X190801734Y-83878927D01*
X191142891Y-84065003D01*
X192632895Y-82575000D01*
X192992105Y-82575000D01*
X194482109Y-84065003D01*
X194823266Y-83878927D01*
X195039013Y-83461591D01*
X195129306Y-83148500D01*
X195727428Y-83148500D01*
X195739688Y-83272982D01*
X195775998Y-83392680D01*
X195834963Y-83502994D01*
X195914315Y-83599685D01*
X196011006Y-83679037D01*
X196121320Y-83738002D01*
X196241018Y-83774312D01*
X196365500Y-83786572D01*
X198279750Y-83783500D01*
X198438500Y-83624750D01*
X198438500Y-81775500D01*
X195889250Y-81775500D01*
X195730500Y-81934250D01*
X195727428Y-83148500D01*
X195129306Y-83148500D01*
X195169196Y-83010185D01*
X195208813Y-82542054D01*
X195156342Y-82075189D01*
X195013797Y-81627532D01*
X194823266Y-81271073D01*
X194482109Y-81084997D01*
X192992105Y-82575000D01*
X192632895Y-82575000D01*
X191142891Y-81084997D01*
X190801734Y-81271073D01*
X190585987Y-81688409D01*
X190455804Y-82139815D01*
X190416187Y-82607946D01*
X187020577Y-82607946D01*
X187020577Y-82602116D01*
X186921906Y-82106066D01*
X186728357Y-81638796D01*
X186447367Y-81218265D01*
X186134493Y-80905391D01*
X191322497Y-80905391D01*
X192812500Y-82395395D01*
X194302503Y-80905391D01*
X194116427Y-80564234D01*
X193699091Y-80348487D01*
X193247685Y-80218304D01*
X192779554Y-80178687D01*
X192312689Y-80231158D01*
X191865032Y-80373703D01*
X191508573Y-80564234D01*
X191322497Y-80905391D01*
X186134493Y-80905391D01*
X186089735Y-80860633D01*
X185669204Y-80579643D01*
X185201934Y-80386094D01*
X184705884Y-80287423D01*
X184200116Y-80287423D01*
X183704066Y-80386094D01*
X183236796Y-80579643D01*
X182816265Y-80860633D01*
X182458633Y-81218265D01*
X182177643Y-81638796D01*
X181984094Y-82106066D01*
X181885423Y-82602116D01*
X166646000Y-82602116D01*
X166646000Y-82052419D01*
X166649193Y-82020000D01*
X166636450Y-81890617D01*
X166598710Y-81766207D01*
X166537425Y-81651550D01*
X166454948Y-81551052D01*
X166354450Y-81468575D01*
X166239793Y-81407290D01*
X166115383Y-81369550D01*
X166018419Y-81360000D01*
X165986000Y-81356807D01*
X165953581Y-81360000D01*
X135546419Y-81360000D01*
X135514000Y-81356807D01*
X135481581Y-81360000D01*
X135384617Y-81369550D01*
X135260207Y-81407290D01*
X135145550Y-81468575D01*
X135045052Y-81551052D01*
X134962575Y-81651550D01*
X134901290Y-81766207D01*
X134863550Y-81890617D01*
X134850807Y-82020000D01*
X119353257Y-82020000D01*
X119195357Y-81638796D01*
X118914367Y-81218265D01*
X118556735Y-80860633D01*
X118136204Y-80579643D01*
X117668934Y-80386094D01*
X117172884Y-80287423D01*
X116667116Y-80287423D01*
X116171066Y-80386094D01*
X115703796Y-80579643D01*
X115283265Y-80860633D01*
X114925633Y-81218265D01*
X114644643Y-81638796D01*
X114451094Y-82106066D01*
X114352423Y-82602116D01*
X111078730Y-82602116D01*
X111083813Y-82542054D01*
X111031342Y-82075189D01*
X110888797Y-81627532D01*
X110698266Y-81271073D01*
X110357109Y-81084997D01*
X108867105Y-82575000D01*
X108507895Y-82575000D01*
X107017891Y-81084997D01*
X106676734Y-81271073D01*
X106460987Y-81688409D01*
X106330804Y-82139815D01*
X106291187Y-82607946D01*
X105771205Y-82607946D01*
X105769500Y-81934250D01*
X105610750Y-81775500D01*
X103061500Y-81775500D01*
X102807500Y-81775500D01*
X102787500Y-81775500D01*
X102787500Y-81521500D01*
X102807500Y-81521500D01*
X102807500Y-81501500D01*
X103061500Y-81501500D01*
X103061500Y-81521500D01*
X105610750Y-81521500D01*
X105769500Y-81362750D01*
X105770657Y-80905391D01*
X107197497Y-80905391D01*
X108687500Y-82395395D01*
X110177503Y-80905391D01*
X109991427Y-80564234D01*
X109574091Y-80348487D01*
X109122685Y-80218304D01*
X108654554Y-80178687D01*
X108187689Y-80231158D01*
X107740032Y-80373703D01*
X107383573Y-80564234D01*
X107197497Y-80905391D01*
X105770657Y-80905391D01*
X105772572Y-80148500D01*
X105760312Y-80024018D01*
X105740892Y-79960000D01*
X195759108Y-79960000D01*
X195739688Y-80024018D01*
G37*
G04 #@! TD.AperFunction*
M02*
